<?xml version="1.0" encoding="UTF-8"?>
<!DOCTYPE svg PUBLIC "-//W3C//DTD SVG 1.1//EN" "http://www.w3.org/Graphics/SVG/1.1/DTD/svg11.dtd">
<svg xmlns="http://www.w3.org/2000/svg" version="1.1" width="282px" height="417px" style="shape-rendering:geometricPrecision; text-rendering:geometricPrecision; image-rendering:optimizeQuality; fill-rule:evenodd; clip-rule:evenodd" xmlns:xlink="http://www.w3.org/1999/xlink">
<g><path style="opacity:1" fill="#fefefe" d="M -0.5,-0.5 C 93.5,-0.5 187.5,-0.5 281.5,-0.5C 281.5,138.5 281.5,277.5 281.5,416.5C 244.167,416.5 206.833,416.5 169.5,416.5C 172.288,404.649 173.955,392.649 174.5,380.5C 175.892,378.727 177.059,376.727 178,374.5C 178.333,374.833 178.667,375.167 179,375.5C 180.633,370.707 182.133,365.374 183.5,359.5C 185.41,356.445 186.743,353.111 187.5,349.5C 188.167,348.5 188.833,347.5 189.5,346.5C 191.326,344.853 192.66,342.853 193.5,340.5C 198.206,336.349 202.872,332.849 207.5,330C 205.009,329.374 205.009,328.541 207.5,327.5C 208.776,326.355 210.109,326.355 211.5,327.5C 212.251,326.624 212.751,325.624 213,324.5C 213.333,324.833 213.667,325.167 214,325.5C 215.236,323.462 217.069,322.295 219.5,322C 219.619,320.855 219.952,319.688 220.5,318.5C 220.833,318.5 221.167,318.5 221.5,318.5C 223.807,318.014 225.973,318.014 228,318.5C 230.344,316.226 233.178,315.059 236.5,315C 236.167,314.667 235.833,314.333 235.5,314C 236.416,313.722 237.082,313.222 237.5,312.5C 238.496,312.414 239.329,312.748 240,313.5C 241.236,311.462 243.069,310.295 245.5,310C 246.823,309.184 247.489,308.017 247.5,306.5C 247.833,306.5 248.167,306.5 248.5,306.5C 249.789,307.501 251.122,307.334 252.5,306C 254.395,302.986 256.395,300.153 258.5,297.5C 259.5,297.167 260.167,296.5 260.5,295.5C 261.397,296.598 262.23,296.598 263,295.5C 264.275,289.845 265.442,284.179 266.5,278.5C 266.679,275.869 266.013,273.535 264.5,271.5C 264.977,270.522 265.643,269.689 266.5,269C 265.246,264.223 264.579,259.557 264.5,255C 265.701,254.097 266.535,252.931 267,251.5C 266.898,247.703 267.064,244.037 267.5,240.5C 267.46,237.142 266.126,234.476 263.5,232.5C 262.89,231.609 262.557,230.609 262.5,229.5C 263.225,227.053 263.892,224.553 264.5,222C 263.731,216.204 263.231,210.371 263,204.5C 260.6,202.585 258.1,200.919 255.5,199.5C 255.277,197.658 254.943,195.825 254.5,194C 255.551,190.339 256.885,186.839 258.5,183.5C 259.906,183.027 260.573,182.027 260.5,180.5C 261.397,179.402 262.23,179.402 263,180.5C 263.333,179.5 263.667,178.5 264,177.5C 264.333,177.833 264.667,178.167 265,178.5C 265.576,176.623 265.409,174.789 264.5,173C 264.905,172.055 265.572,171.388 266.5,171C 265.167,168.667 265.167,166.333 266.5,164C 265.099,163.59 263.766,163.09 262.5,162.5C 261.117,159.784 259.117,157.784 256.5,156.5C 255.208,153.599 253.208,151.266 250.5,149.5C 244.994,146.582 239.661,143.416 234.5,140C 233.773,138.601 233.273,137.101 233,135.5C 231.395,135.562 229.895,135.562 228.5,135.5C 224.792,134.068 222.459,131.402 221.5,127.5C 220.967,122.378 219.467,118.044 217,114.5C 215.334,115.34 215.167,114.84 216.5,113C 215.884,110.821 214.717,108.988 213,107.5C 213.673,104.707 213.007,102.04 211,99.5C 210.722,100.416 210.222,101.082 209.5,101.5C 208.317,98.6185 207.317,95.6185 206.5,92.5C 206.78,89.7276 206.113,87.2276 204.5,85C 204.833,84.6667 205.167,84.3333 205.5,84C 203.623,81.7487 202.123,79.2487 201,76.5C 200.667,76.8333 200.333,77.1667 200,77.5C 200.026,73.6952 198.192,71.6952 194.5,71.5C 192.6,69.3805 190.934,67.0472 189.5,64.5C 189.617,62.5165 188.95,60.8498 187.5,59.5C 187.833,58.8333 188.167,58.1667 188.5,57.5C 187.478,56.646 186.645,55.646 186,54.5C 185.683,56.3008 185.016,56.6341 184,55.5C 180.987,49.6042 177.154,44.4375 172.5,40C 170.866,39.5065 169.199,39.3398 167.5,39.5C 167.5,39.1667 167.5,38.8333 167.5,38.5C 167.918,37.7784 168.584,37.2784 169.5,37C 167.545,36.0467 165.878,34.7134 164.5,33C 163.216,32.3162 162.049,32.4829 161,33.5C 160.184,32.1772 159.017,31.5106 157.5,31.5C 156.402,30.603 156.402,29.7697 157.5,29C 154.92,27.8555 152.253,27.0222 149.5,26.5C 147.489,24.6609 145.156,23.1609 142.5,22C 144.932,20.9125 144.598,20.4125 141.5,20.5C 141.5,19.5 141.5,18.5 141.5,17.5C 135.338,15.2913 129.004,13.6246 122.5,12.5C 121.554,12.9867 120.554,13.3201 119.5,13.5C 114.368,12.3522 109.535,10.6856 105,8.5C 100.752,8.60338 100.586,9.10338 104.5,10C 102.5,10.6667 100.5,10.6667 98.5,10C 99.1667,9.66667 99.8333,9.33333 100.5,9C 92.8333,8.33333 85.1667,8.33333 77.5,9C 78.6843,10.1455 78.6843,11.3121 77.5,12.5C 74.4498,14.1007 71.1165,15.1007 67.5,15.5C 64.3135,14.9603 61.8135,15.9603 60,18.5C 57.8882,17.6138 55.7216,17.6138 53.5,18.5C 53.8034,21.5876 52.4701,23.2542 49.5,23.5C 49.5,24.5 49.5,25.5 49.5,26.5C 49.0269,27.9063 48.0269,28.573 46.5,28.5C 43.769,27.6261 41.6024,28.6261 40,31.5C 39.6667,31.1667 39.3333,30.8333 39,30.5C 39.2388,34.1842 37.7388,36.8509 34.5,38.5C 34.8333,39.1667 35.1667,39.8333 35.5,40.5C 34.0499,41.8498 33.3832,43.5165 33.5,45.5C 32.8826,45.3893 32.3826,45.056 32,44.5C 30.4977,47.0184 28.9977,49.5184 27.5,52C 28.0126,54.7181 28.0126,57.5515 27.5,60.5C 26.6641,64.3225 25.6641,67.9892 24.5,71.5C 23.0688,72.9025 21.9022,74.5692 21,76.5C 20.4476,81.7254 20.9476,86.7254 22.5,91.5C 20.0063,95.1662 20.0063,98.9995 22.5,103C 21.875,104.841 21.7083,106.674 22,108.5C 22.6667,105.833 23.3333,105.833 24,108.5C 24.6841,111.38 24.5174,114.213 23.5,117C 25.1109,119.21 25.7776,121.71 25.5,124.5C 26.5,124.5 27.5,124.5 28.5,124.5C 28.3011,127.941 28.8011,131.274 30,134.5C 30.3333,134.167 30.6667,133.833 31,133.5C 31.9689,135.734 33.3022,137.734 35,139.5C 35.2326,141.78 36.066,143.78 37.5,145.5C 37.1667,146.167 36.8333,146.833 36.5,147.5C 37.989,147.533 39.3224,148.033 40.5,149C 39.5,149.333 38.5,149.667 37.5,150C 39.5495,151.332 41.5495,151.498 43.5,150.5C 49.364,154.681 55.364,158.681 61.5,162.5C 65.427,165.927 70.0937,167.26 75.5,166.5C 79.0156,167.717 82.5156,169.05 86,170.5C 86.3333,170.167 86.6667,169.833 87,169.5C 89.1236,172.667 89.6236,176 88.5,179.5C 89.548,180.548 90.548,181.548 91.5,182.5C 92.1667,183.833 92.8333,185.167 93.5,186.5C 93.5,187.833 93.5,189.167 93.5,190.5C 92.9777,196.729 93.6444,202.729 95.5,208.5C 95.2395,210.187 94.5728,211.687 93.5,213C 94.7908,215.09 94.1242,216.424 91.5,217C 92.448,217.483 93.448,217.649 94.5,217.5C 94.4386,222.545 92.7719,226.879 89.5,230.5C 90.3554,231.293 91.1887,230.96 92,229.5C 92.4643,230.094 92.631,230.761 92.5,231.5C 91.7321,232.263 91.2321,233.263 91,234.5C 88.8707,233.137 88.3707,233.471 89.5,235.5C 86.7581,237.897 85.7581,240.73 86.5,244C 84.7308,249.408 81.8974,254.241 78,258.5C 77.9657,260.18 77.799,261.68 77.5,263C 78.0944,263.464 78.7611,263.631 79.5,263.5C 80.5,263.5 81.5,263.5 82.5,263.5C 84.3904,263.703 85.8904,263.037 87,261.5C 87.6575,258.715 88.4909,256.049 89.5,253.5C 90.9778,253.762 92.3112,253.429 93.5,252.5C 93.1543,251.304 92.6543,251.304 92,252.5C 91.51,251.207 91.3433,249.873 91.5,248.5C 91.8925,246.716 92.5592,245.05 93.5,243.5C 94.8249,242.047 95.6582,242.381 96,244.5C 98.1499,240.607 98.6499,236.607 97.5,232.5C 97.8333,231.833 98.1667,231.167 98.5,230.5C 100.741,229.7 101.741,228.034 101.5,225.5C 109.072,225.418 116.739,225.251 124.5,225C 125.416,224.722 126.082,224.222 126.5,223.5C 127.833,223.5 129.167,223.5 130.5,223.5C 136.569,223.568 142.069,223.901 147,224.5C 147.893,231.447 150.06,237.947 153.5,244C 152.493,246.997 153.16,249.664 155.5,252C 155.167,252.333 154.833,252.667 154.5,253C 155.416,253.374 156.25,253.874 157,254.5C 157.914,256.664 159.081,258.664 160.5,260.5C 161.086,260.291 161.586,259.957 162,259.5C 162.422,261.426 163.589,262.426 165.5,262.5C 167.235,265.067 169.235,265.067 171.5,262.5C 172.904,263.999 173.57,263.666 173.5,261.5C 171.97,257.456 169.47,254.123 166,251.5C 165.667,250.167 165.333,248.833 165,247.5C 159.689,245.406 159.189,241.906 163.5,237C 165.134,236.506 166.801,236.34 168.5,236.5C 173.772,237.4 179.105,237.733 184.5,237.5C 189.968,237.564 194.968,236.73 199.5,235C 198.786,233.657 199.12,232.324 200.5,231C 202.5,230.333 204.5,229.667 206.5,229C 206.034,227.701 206.034,226.201 206.5,224.5C 205.5,224.5 204.5,224.5 203.5,224.5C 203.167,223.833 202.833,223.167 202.5,222.5C 200.114,217.712 196.447,215.712 191.5,216.5C 188.167,216.167 184.833,215.833 181.5,215.5C 181.38,214.414 180.713,213.747 179.5,213.5C 176.016,214.926 172.516,215.259 169,214.5C 166.845,215.656 165.011,217.156 163.5,219C 162.552,219.483 161.552,219.649 160.5,219.5C 160.671,222.797 160.005,223.131 158.5,220.5C 157.478,223.441 156.645,226.441 156,229.5C 155.102,226.931 153.935,224.598 152.5,222.5C 151.589,217.547 150.922,212.547 150.5,207.5C 150.243,204.055 150.576,200.722 151.5,197.5C 150.524,194.837 149.19,192.504 147.5,190.5C 147.5,189.833 147.5,189.167 147.5,188.5C 148.205,185.772 148.872,182.939 149.5,180C 149.284,172.368 149.284,164.702 149.5,157C 148.074,154.955 147.074,152.788 146.5,150.5C 144.197,147.844 144.864,145.678 148.5,144C 147.833,143.667 147.167,143.333 146.5,143C 148.345,141.577 150.345,140.41 152.5,139.5C 152.723,138.033 153.056,136.533 153.5,135C 154.938,134.781 156.271,134.281 157.5,133.5C 158.928,128.121 160.261,122.788 161.5,117.5C 169.881,96.4239 167.548,76.7573 154.5,58.5C 158.223,57.2058 158.223,56.0391 154.5,55C 151.159,51.5245 146.826,48.6911 141.5,46.5C 140.264,47.2458 138.93,47.5792 137.5,47.5C 136.895,45.9743 135.729,44.9743 134,44.5C 131.373,44.9347 128.54,44.9347 125.5,44.5C 120.798,44.6717 116.132,45.1717 111.5,46C 110.619,46.7083 109.953,47.5416 109.5,48.5C 108.508,48.3284 107.842,48.6618 107.5,49.5C 106.153,48.9717 104.819,48.805 103.5,49C 103.833,49.3333 104.167,49.6667 104.5,50C 102.077,50.6971 100.411,52.1971 99.5,54.5C 96.9108,55.4194 94.9108,57.086 93.5,59.5C 90.6352,60.1912 88.4685,61.8579 87,64.5C 86.6667,64.1667 86.3333,63.8333 86,63.5C 84.0765,65.8221 82.7431,68.4888 82,71.5C 81.586,71.0426 81.086,70.7093 80.5,70.5C 77.074,74.5006 75.7407,79.1673 76.5,84.5C 76.634,86.2915 76.3007,87.9582 75.5,89.5C 74.596,90.209 74.2627,91.209 74.5,92.5C 73.1667,92.5 71.8333,92.5 70.5,92.5C 69.944,88.039 68.7774,83.7057 67,79.5C 66.2411,77.9371 65.0744,76.9371 63.5,76.5C 62.0687,75.2196 61.4021,73.5529 61.5,71.5C 61.6663,66.7272 59.6663,65.0605 55.5,66.5C 54.7326,67.172 54.0659,68.0053 53.5,69C 55.7756,73.2044 57.109,77.7044 57.5,82.5C 58.5,82.5 59.5,82.5 60.5,82.5C 62.0652,84.5093 63.0652,86.8427 63.5,89.5C 63.1207,93.5762 64.1207,97.2429 66.5,100.5C 64.1516,101.86 63.9849,103.527 66,105.5C 66.0748,103.065 66.9081,102.398 68.5,103.5C 68.5,103.833 68.5,104.167 68.5,104.5C 67.927,108.392 68.2604,112.392 69.5,116.5C 70.8186,118.18 72.1519,119.847 73.5,121.5C 72.8333,121.833 72.1667,122.167 71.5,122.5C 73.741,124.968 75.4077,127.801 76.5,131C 75.8333,131.333 75.1667,131.667 74.5,132C 75.3295,133.816 76.1628,135.649 77,137.5C 77.3333,137.167 77.6667,136.833 78,136.5C 79.9154,140.607 80.4154,144.774 79.5,149C 81.8146,150.296 82.8146,152.296 82.5,155C 81.7888,160.106 79.2888,161.273 75,158.5C 72.6112,159.256 70.4445,158.589 68.5,156.5C 66.2727,157.053 63.9393,157.053 61.5,156.5C 60.448,156.649 59.448,156.483 58.5,156C 56.4992,153.675 54.1658,151.842 51.5,150.5C 51.162,148.146 50.662,145.813 50,143.5C 49.3333,144.167 48.6667,144.833 48,145.5C 47.2641,142.403 45.7641,139.403 43.5,136.5C 42.2724,134.824 40.9391,134.491 39.5,135.5C 39.7367,131.727 39.2367,128.06 38,124.5C 37.6667,125.167 37.3333,125.833 37,126.5C 36.6667,124.833 36.3333,123.167 36,121.5C 35.1107,122.888 34.6107,122.722 34.5,121C 34.6448,120.228 34.9781,119.561 35.5,119C 34.0345,117.138 32.3678,115.305 30.5,113.5C 29.6314,111.283 29.298,108.95 29.5,106.5C 29.6161,96.8487 29.9495,87.1821 30.5,77.5C 30.4515,73.9269 31.4515,70.7602 33.5,68C 32.4464,66.6124 32.2797,65.1124 33,63.5C 33.6543,64.6956 34.1543,64.6956 34.5,63.5C 34.1667,62.8333 33.8333,62.1667 33.5,61.5C 36.0124,60.2881 36.6791,57.9547 35.5,54.5C 36.9142,52.9458 38.5808,51.6125 40.5,50.5C 39.6744,49.549 39.5078,48.549 40,47.5C 42.3909,48.6025 42.8909,47.9358 41.5,45.5C 42.6283,44.7379 43.7949,44.0712 45,43.5C 45.561,40.7206 46.3944,38.054 47.5,35.5C 48.8333,33.5 50.5,31.8333 52.5,30.5C 55.9247,29.7098 59.2581,28.5431 62.5,27C 61.7476,26.3292 61.4142,25.4959 61.5,24.5C 70.8699,22.6396 80.0366,20.3063 89,17.5C 95.7212,17.7015 102.555,17.7015 109.5,17.5C 110.942,20.0304 112.942,20.697 115.5,19.5C 121.362,21.9258 127.362,24.0924 133.5,26C 134.646,26.6449 135.646,27.4783 136.5,28.5C 137.167,28.1667 137.833,27.8333 138.5,27.5C 140.81,29.4124 143.477,30.4124 146.5,30.5C 146.973,31.9063 147.973,32.573 149.5,32.5C 150.167,32.5 150.833,32.5 151.5,32.5C 152.167,33.5 152.833,34.5 153.5,35.5C 153.215,37.288 153.548,38.9547 154.5,40.5C 154.911,39.7376 155.077,38.7376 155,37.5C 158.806,40.6396 162.306,44.1396 165.5,48C 166.793,48.49 168.127,48.6567 169.5,48.5C 171.297,49.393 172.63,50.7263 173.5,52.5C 174.075,54.4113 175.075,56.078 176.5,57.5C 175.761,57.369 175.094,57.5357 174.5,58C 175.729,59.5292 177.229,60.6959 179,61.5C 179.822,63.7885 180.489,66.1218 181,68.5C 181.333,67.8333 181.667,67.1667 182,66.5C 183.667,69.5 185.333,72.5 187,75.5C 188.356,76.3802 189.856,76.7135 191.5,76.5C 193.796,77.733 195.13,79.733 195.5,82.5C 196.766,85.3006 197.599,88.3006 198,91.5C 200.825,92.5842 200.992,93.7508 198.5,95C 199.362,97.7344 200.195,97.9011 201,95.5C 201.708,96.3805 202.542,97.0472 203.5,97.5C 203.952,101.163 204.452,104.83 205,108.5C 205.708,109.381 206.542,110.047 207.5,110.5C 207.338,112.527 207.505,114.527 208,116.5C 209.93,118.758 211.43,121.258 212.5,124C 212.167,124.333 211.833,124.667 211.5,125C 212.448,125.483 213.448,125.649 214.5,125.5C 213.196,128.912 214.196,131.579 217.5,133.5C 217.167,134.167 216.833,134.833 216.5,135.5C 218.003,136.052 219.669,136.052 221.5,135.5C 221.833,136.167 222.167,136.833 222.5,137.5C 224.087,140.268 225.92,142.935 228,145.5C 228.671,146.252 229.504,146.586 230.5,146.5C 233.968,147.771 236.968,149.771 239.5,152.5C 238.909,153.151 238.243,153.818 237.5,154.5C 241.162,156.107 244.829,157.607 248.5,159C 247.262,158.923 246.262,159.089 245.5,159.5C 247.857,161.352 250.523,162.519 253.5,163C 256.672,165.495 258.338,169.329 258.5,174.5C 250.545,177.102 247.212,182.435 248.5,190.5C 246.121,192.418 246.121,194.085 248.5,195.5C 248.467,200.47 250.8,203.804 255.5,205.5C 256.127,206.417 256.461,207.417 256.5,208.5C 256.241,212.093 256.241,215.759 256.5,219.5C 255.846,220.504 255.013,221.504 254,222.5C 253.51,223.793 253.343,225.127 253.5,226.5C 253.433,227.959 253.766,229.292 254.5,230.5C 256.067,233.355 257.734,236.355 259.5,239.5C 259.09,243.104 258.923,246.771 259,250.5C 258.119,252.946 256.953,255.279 255.5,257.5C 257.626,266.262 257.959,275.096 256.5,284C 257.509,284.355 258.176,285.188 258.5,286.5C 257.069,291.929 254.069,296.263 249.5,299.5C 247.199,300.06 244.866,300.56 242.5,301C 241.829,301.986 241.829,303.153 242.5,304.5C 241.167,304.833 239.833,305.167 238.5,305.5C 235.896,304.47 233.229,304.47 230.5,305.5C 230.371,307.216 230.038,308.883 229.5,310.5C 228.791,311.404 227.791,311.737 226.5,311.5C 224.218,310.61 221.885,310.444 219.5,311C 221.595,311.556 221.762,312.056 220,312.5C 217.88,311.541 215.713,311.374 213.5,312C 214.623,313.044 215.956,313.71 217.5,314C 214.568,314.953 211.568,315.453 208.5,315.5C 208.5,316.833 208.5,318.167 208.5,319.5C 207.504,319.414 206.671,319.748 206,320.5C 205.396,318.314 204.23,318.148 202.5,320C 203.833,320.667 203.833,321.333 202.5,322C 201.146,323.294 199.812,323.46 198.5,322.5C 195.297,324.702 193.297,327.702 192.5,331.5C 191.284,332.002 190.117,332.335 189,332.5C 188.365,333.966 187.531,335.3 186.5,336.5C 186.709,337.086 187.043,337.586 187.5,338C 184.092,341.4 182.092,345.567 181.5,350.5C 179.07,354.107 177.403,358.107 176.5,362.5C 175.167,362.5 174.5,363.167 174.5,364.5C 173.778,364.082 173.278,363.416 173,362.5C 172.703,365.914 172.036,369.247 171,372.5C 170.667,372.167 170.333,371.833 170,371.5C 169.301,375.965 168.134,380.298 166.5,384.5C 167.246,385.736 167.579,387.07 167.5,388.5C 167.5,389.5 167.5,390.5 167.5,391.5C 165.41,391.45 164.077,392.45 163.5,394.5C 163.417,396.092 163.751,397.759 164.5,399.5C 162.646,403.245 162.313,407.078 163.5,411C 163.241,412.261 162.574,413.261 161.5,414C 162.252,414.671 162.586,415.504 162.5,416.5C 130.5,416.5 98.5,416.5 66.5,416.5C 64.9622,413.952 63.2956,413.952 61.5,416.5C 40.8333,416.5 20.1667,416.5 -0.5,416.5C -0.5,277.5 -0.5,138.5 -0.5,-0.5 Z"/></g>
<g><path style="opacity:1" fill="#f9f0f9" d="M 149.5,26.5 C 143.071,22.8557 136.404,19.689 129.5,17C 126.568,16.0467 123.568,15.5467 120.5,15.5C 106.52,11.4978 92.1865,10.4978 77.5,12.5C 78.6843,11.3121 78.6843,10.1455 77.5,9C 85.1667,8.33333 92.8333,8.33333 100.5,9C 99.8333,9.33333 99.1667,9.66667 98.5,10C 100.5,10.6667 102.5,10.6667 104.5,10C 100.586,9.10338 100.752,8.60338 105,8.5C 109.535,10.6856 114.368,12.3522 119.5,13.5C 120.554,13.3201 121.554,12.9867 122.5,12.5C 129.004,13.6246 135.338,15.2913 141.5,17.5C 141.5,18.5 141.5,19.5 141.5,20.5C 144.598,20.4125 144.932,20.9125 142.5,22C 145.156,23.1609 147.489,24.6609 149.5,26.5 Z"/></g>
<g><path style="opacity:1" fill="#c1aec4" d="M 120.5,15.5 C 121.79,16.9348 123.456,17.9348 125.5,18.5C 125.043,19.2975 124.376,19.6309 123.5,19.5C 118.853,18.704 114.186,18.0373 109.5,17.5C 95.2765,14.0923 81.2765,15.0923 67.5,20.5C 65.5853,20.7845 63.9187,20.4511 62.5,19.5C 63.9842,17.9263 65.6508,16.593 67.5,15.5C 71.1165,15.1007 74.4498,14.1007 77.5,12.5C 92.1865,10.4978 106.52,11.4978 120.5,15.5 Z"/></g>
<g><path style="opacity:1" fill="#f9eef8" d="M 109.5,17.5 C 102.555,17.7015 95.7212,17.7015 89,17.5C 80.0366,20.3063 70.8699,22.6396 61.5,24.5C 63.364,22.9862 65.364,21.6528 67.5,20.5C 81.2765,15.0923 95.2765,14.0923 109.5,17.5 Z"/></g>
<g><path style="opacity:1" fill="#fcf2fb" d="M 67.5,15.5 C 65.6508,16.593 63.9842,17.9263 62.5,19.5C 57.7627,21.0361 53.4293,23.3694 49.5,26.5C 49.5,25.5 49.5,24.5 49.5,23.5C 52.4701,23.2542 53.8034,21.5876 53.5,18.5C 55.7216,17.6138 57.8882,17.6138 60,18.5C 61.8135,15.9603 64.3135,14.9603 67.5,15.5 Z"/></g>
<g><path style="opacity:1" fill="#faf2fb" d="M 109.5,17.5 C 114.186,18.0373 118.853,18.704 123.5,19.5C 128.79,21.5831 134.123,23.7498 139.5,26C 141.993,27.4186 144.326,28.9186 146.5,30.5C 143.477,30.4124 140.81,29.4124 138.5,27.5C 137.833,27.8333 137.167,28.1667 136.5,28.5C 135.646,27.4783 134.646,26.6449 133.5,26C 127.362,24.0924 121.362,21.9258 115.5,19.5C 112.942,20.697 110.942,20.0304 109.5,17.5 Z"/></g>
<g><path style="opacity:1" fill="#c2b2c5" d="M 120.5,15.5 C 123.568,15.5467 126.568,16.0467 129.5,17C 136.404,19.689 143.071,22.8557 149.5,26.5C 149.833,27.1667 150.167,27.8333 150.5,28.5C 148.007,28.1307 147.34,28.7973 148.5,30.5C 147.833,30.5 147.167,30.5 146.5,30.5C 144.326,28.9186 141.993,27.4186 139.5,26C 134.123,23.7498 128.79,21.5831 123.5,19.5C 124.376,19.6309 125.043,19.2975 125.5,18.5C 123.456,17.9348 121.79,16.9348 120.5,15.5 Z"/></g>
<g><path style="opacity:1" fill="#f5eaf5" d="M 61.5,24.5 C 61.4142,25.4959 61.7476,26.3292 62.5,27C 59.2581,28.5431 55.9247,29.7098 52.5,30.5C 55.2228,28.1152 58.2228,26.1152 61.5,24.5 Z"/></g>
<g><path style="opacity:1" fill="#f7eaf7" d="M 149.5,26.5 C 152.253,27.0222 154.92,27.8555 157.5,29C 156.402,29.7697 156.402,30.603 157.5,31.5C 156.167,31.1667 154.833,30.8333 153.5,30.5C 153.027,29.0937 152.027,28.427 150.5,28.5C 150.167,27.8333 149.833,27.1667 149.5,26.5 Z"/></g>
<g><path style="opacity:1" fill="#fcf6fb" d="M 46.5,28.5 C 42.4091,34.3467 38.0758,40.0133 33.5,45.5C 33.3832,43.5165 34.0499,41.8498 35.5,40.5C 35.1667,39.8333 34.8333,39.1667 34.5,38.5C 37.7388,36.8509 39.2388,34.1842 39,30.5C 39.3333,30.8333 39.6667,31.1667 40,31.5C 41.6024,28.6261 43.769,27.6261 46.5,28.5 Z"/></g>
<g><path style="opacity:1" fill="#c5a9c8" d="M 150.5,28.5 C 152.027,28.427 153.027,29.0937 153.5,30.5C 152.833,31.1667 152.167,31.8333 151.5,32.5C 150.833,32.5 150.167,32.5 149.5,32.5C 149.167,31.8333 148.833,31.1667 148.5,30.5C 147.34,28.7973 148.007,28.1307 150.5,28.5 Z"/></g>
<g><path style="opacity:1" fill="#f4e1f6" d="M 146.5,30.5 C 147.167,30.5 147.833,30.5 148.5,30.5C 148.833,31.1667 149.167,31.8333 149.5,32.5C 147.973,32.573 146.973,31.9063 146.5,30.5 Z"/></g>
<g><path style="opacity:1" fill="#faf2fb" d="M 157.5,31.5 C 159.017,31.5106 160.184,32.1772 161,33.5C 162.049,32.4829 163.216,32.3162 164.5,33C 165.878,34.7134 167.545,36.0467 169.5,37C 168.584,37.2784 167.918,37.7784 167.5,38.5C 166.448,38.6495 165.448,38.4828 164.5,38C 162.093,35.8169 159.76,33.6503 157.5,31.5 Z"/></g>
<g><path style="opacity:1" fill="#f8eef8" d="M 47.5,35.5 C 46.3944,38.054 45.561,40.7206 45,43.5C 43.7949,44.0712 42.6283,44.7379 41.5,45.5C 42.8909,47.9358 42.3909,48.6025 40,47.5C 39.5078,48.549 39.6744,49.549 40.5,50.5C 38.5808,51.6125 36.9142,52.9458 35.5,54.5C 35.5752,51.5933 36.4086,48.9266 38,46.5C 40.6857,42.3821 43.8524,38.7154 47.5,35.5 Z"/></g>
<g><path style="opacity:1" fill="#faf1fb" d="M 153.5,35.5 C 159.942,38.3981 165.275,42.7314 169.5,48.5C 168.127,48.6567 166.793,48.49 165.5,48C 162.306,44.1396 158.806,40.6396 155,37.5C 155.077,38.7376 154.911,39.7376 154.5,40.5C 153.548,38.9547 153.215,37.288 153.5,35.5 Z"/></g>
<g><path style="opacity:1" fill="#faf1fa" d="M 167.5,39.5 C 169.199,39.3398 170.866,39.5065 172.5,40C 177.154,44.4375 180.987,49.6042 184,55.5C 185.016,56.6341 185.683,56.3008 186,54.5C 186.645,55.646 187.478,56.646 188.5,57.5C 188.167,58.1667 187.833,58.8333 187.5,59.5C 188.95,60.8498 189.617,62.5165 189.5,64.5C 189.167,64.5 188.833,64.5 188.5,64.5C 185.58,59.5731 182.246,54.9065 178.5,50.5C 174.479,47.1456 170.812,43.479 167.5,39.5 Z"/></g>
<g><path style="opacity:1" fill="#f5ecf6" d="M 137.5,47.5 C 128.059,45.8747 118.726,46.208 109.5,48.5C 109.953,47.5416 110.619,46.7083 111.5,46C 116.132,45.1717 120.798,44.6717 125.5,44.5C 128.54,44.9347 131.373,44.9347 134,44.5C 135.729,44.9743 136.895,45.9743 137.5,47.5 Z"/></g>
<g><path style="opacity:1" fill="#beb0c3" d="M 153.5,30.5 C 154.833,30.8333 156.167,31.1667 157.5,31.5C 159.76,33.6503 162.093,35.8169 164.5,38C 165.448,38.4828 166.448,38.6495 167.5,38.5C 167.5,38.8333 167.5,39.1667 167.5,39.5C 170.812,43.479 174.479,47.1456 178.5,50.5C 182.246,54.9065 185.58,59.5731 188.5,64.5C 188.44,65.0431 188.107,65.3764 187.5,65.5C 186.099,63.7227 184.599,62.056 183,60.5C 182.601,60.7284 182.435,61.0618 182.5,61.5C 179.86,58.1938 176.86,55.1938 173.5,52.5C 172.63,50.7263 171.297,49.393 169.5,48.5C 165.275,42.7314 159.942,38.3981 153.5,35.5C 152.833,34.5 152.167,33.5 151.5,32.5C 152.167,31.8333 152.833,31.1667 153.5,30.5 Z"/></g>
<g><path style="opacity:1" fill="#f7f0f7" d="M 33.5,45.5 C 31.1674,50.4791 29.1674,55.4791 27.5,60.5C 28.0126,57.5515 28.0126,54.7181 27.5,52C 28.9977,49.5184 30.4977,47.0184 32,44.5C 32.3826,45.056 32.8826,45.3893 33.5,45.5 Z"/></g>
<g><path style="opacity:1" fill="#faf1fa" d="M 154.5,58.5 C 149.077,54.4011 143.41,50.7344 137.5,47.5C 138.93,47.5792 140.264,47.2458 141.5,46.5C 146.826,48.6911 151.159,51.5245 154.5,55C 158.223,56.0391 158.223,57.2058 154.5,58.5 Z"/></g>
<g><path style="opacity:1" fill="#efe3ef" d="M 107.5,49.5 C 104.841,51.1635 102.175,52.8302 99.5,54.5C 100.411,52.1971 102.077,50.6971 104.5,50C 104.167,49.6667 103.833,49.3333 103.5,49C 104.819,48.805 106.153,48.9717 107.5,49.5 Z"/></g>
<g><path style="opacity:1" fill="#c0afc3" d="M 137.5,47.5 C 143.41,50.7344 149.077,54.4011 154.5,58.5C 167.548,76.7573 169.881,96.4239 161.5,117.5C 153.247,136.418 139.913,150.418 121.5,159.5C 116.293,160.798 111.293,162.465 106.5,164.5C 106.167,164.5 105.833,164.5 105.5,164.5C 101.5,165.167 97.5,165.833 93.5,166.5C 93.9443,164.887 94.9443,163.72 96.5,163C 92.1305,162.575 87.7972,162.908 83.5,164C 84.9423,164.377 85.9423,165.21 86.5,166.5C 82.8333,166.5 79.1667,166.5 75.5,166.5C 71.5841,165.181 67.5841,163.848 63.5,162.5C 63.7911,161.351 64.6244,160.684 66,160.5C 68.4621,161.159 70.9621,161.493 73.5,161.5C 77.7978,162.2 82.1311,162.533 86.5,162.5C 82.1625,143.495 76.8292,124.828 70.5,106.5C 70.1984,103.941 70.5318,101.607 71.5,99.5C 71.8333,100.167 72.1667,100.833 72.5,101.5C 72.5,101.833 72.5,102.167 72.5,102.5C 72.8748,106.871 73.5415,111.204 74.5,115.5C 76.568,118.157 77.9013,121.157 78.5,124.5C 79.4922,120.217 79.8256,115.884 79.5,111.5C 79.8333,111.5 80.1667,111.5 80.5,111.5C 80.6686,116.181 81.0019,120.848 81.5,125.5C 81.3367,127.857 81.5034,130.19 82,132.5C 82.3826,133.056 82.8826,133.389 83.5,133.5C 85.6654,141.321 87.9988,148.988 90.5,156.5C 90.2627,157.791 90.596,158.791 91.5,159.5C 93.0478,160.794 95.0478,161.461 97.5,161.5C 100.527,161.713 103.193,161.047 105.5,159.5C 112.805,158.182 119.472,155.515 125.5,151.5C 126.391,150.89 127.391,150.557 128.5,150.5C 131.369,149.193 133.702,147.193 135.5,144.5C 135.833,144.5 136.167,144.5 136.5,144.5C 139.167,142.5 141.5,140.167 143.5,137.5C 144.167,136.5 144.833,135.5 145.5,134.5C 146.815,133.524 148.148,132.524 149.5,131.5C 152.648,125.416 155.648,119.416 158.5,113.5C 159.768,111.095 160.435,108.428 160.5,105.5C 160.5,103.833 160.5,102.167 160.5,100.5C 161.682,92.638 161.516,84.638 160,76.5C 158.738,71.626 156.238,67.626 152.5,64.5C 150.824,61.4567 148.491,59.1233 145.5,57.5C 142.94,54.4625 139.607,52.6292 135.5,52C 115.215,47.3198 99.8813,53.8198 89.5,71.5C 85.2767,74.7546 82.61,79.0879 81.5,84.5C 79.8389,92.4072 79.1723,100.407 79.5,108.5C 78.0245,106.993 76.6912,105.327 75.5,103.5C 75.5,101.167 75.5,98.8333 75.5,96.5C 75.5,94.1667 75.5,91.8333 75.5,89.5C 76.3007,87.9582 76.634,86.2915 76.5,84.5C 78.008,80.8849 79.6747,77.2183 81.5,73.5C 84.8034,68.1996 88.8034,63.533 93.5,59.5C 94.9108,57.086 96.9108,55.4194 99.5,54.5C 102.175,52.8302 104.841,51.1635 107.5,49.5C 107.842,48.6618 108.508,48.3284 109.5,48.5C 118.726,46.208 128.059,45.8747 137.5,47.5 Z"/></g>
<g><path style="opacity:1" fill="#f9eff9" d="M 145.5,57.5 C 141.661,55.7549 137.661,54.2549 133.5,53C 127.39,52.1758 121.39,52.6758 115.5,54.5C 114.558,54.3918 113.725,54.0585 113,53.5C 110.304,55.5946 107.47,57.0946 104.5,58C 104.833,58.3333 105.167,58.6667 105.5,59C 103.415,60.0414 101.748,61.5414 100.5,63.5C 98.9825,62.0892 97.6492,62.2559 96.5,64C 97.5,64.3333 98.5,64.6667 99.5,65C 98.1279,65.4017 96.7946,65.9017 95.5,66.5C 94.2433,68.6789 92.7433,70.6789 91,72.5C 90.6174,71.944 90.1174,71.6107 89.5,71.5C 99.8813,53.8198 115.215,47.3198 135.5,52C 139.607,52.6292 142.94,54.4625 145.5,57.5 Z"/></g>
<g><path style="opacity:1" fill="#fefefe" d="M 145.5,57.5 C 148.491,59.1233 150.824,61.4567 152.5,64.5C 152.047,65.4584 151.381,66.2917 150.5,67C 152.1,69.6497 154.433,72.3163 157.5,75C 157.167,75.3333 156.833,75.6667 156.5,76C 158.004,77.4907 158.837,79.324 159,81.5C 160.257,87.7688 160.757,94.1021 160.5,100.5C 160.5,102.167 160.5,103.833 160.5,105.5C 159.662,105.842 159.328,106.508 159.5,107.5C 158.504,107.414 157.671,107.748 157,108.5C 154.763,113.644 153.096,118.977 152,124.5C 151.667,124.167 151.333,123.833 151,123.5C 150.426,125.492 149.259,126.992 147.5,128C 148.337,129.011 148.67,130.178 148.5,131.5C 145.433,131.121 144.433,132.121 145.5,134.5C 144.833,135.5 144.167,136.5 143.5,137.5C 142.883,137.389 142.383,137.056 142,136.5C 140.773,138.726 138.939,140.226 136.5,141C 135.829,141.986 135.829,143.153 136.5,144.5C 136.167,144.5 135.833,144.5 135.5,144.5C 130.669,143.29 128.335,145.29 128.5,150.5C 127.391,150.557 126.391,150.89 125.5,151.5C 121.292,149.959 117.958,151.126 115.5,155C 111.662,156.474 107.662,157.474 103.5,158C 104.416,158.278 105.082,158.778 105.5,159.5C 100.833,159.5 96.1667,159.5 91.5,159.5C 90.596,158.791 90.2627,157.791 90.5,156.5C 90.9817,155.584 91.315,154.584 91.5,153.5C 89.6926,149.343 88.6926,145.009 88.5,140.5C 90.4841,140.516 91.4841,139.516 91.5,137.5C 90.7676,134.803 89.9343,132.136 89,129.5C 88.6827,131.301 88.016,131.634 87,130.5C 86.5065,132.134 86.3398,133.801 86.5,135.5C 86.0276,133.469 85.0276,131.802 83.5,130.5C 82.9759,128.694 82.3092,127.028 81.5,125.5C 81.0019,120.848 80.6686,116.181 80.5,111.5C 80.5353,106.377 80.5353,101.21 80.5,96C 82.0438,94.0344 83.2105,91.8677 84,89.5C 84.0496,83.4169 86.2163,78.4169 90.5,74.5C 89.8728,73.5832 89.5394,72.5832 89.5,71.5C 90.1174,71.6107 90.6174,71.944 91,72.5C 92.7433,70.6789 94.2433,68.6789 95.5,66.5C 96.7946,65.9017 98.1279,65.4017 99.5,65C 98.5,64.6667 97.5,64.3333 96.5,64C 97.6492,62.2559 98.9825,62.0892 100.5,63.5C 101.748,61.5414 103.415,60.0414 105.5,59C 105.167,58.6667 104.833,58.3333 104.5,58C 107.47,57.0946 110.304,55.5946 113,53.5C 113.725,54.0585 114.558,54.3918 115.5,54.5C 121.39,52.6758 127.39,52.1758 133.5,53C 137.661,54.2549 141.661,55.7549 145.5,57.5 Z"/></g>
<g><path style="opacity:1" fill="#ede1ef" d="M 173.5,52.5 C 176.86,55.1938 179.86,58.1938 182.5,61.5C 182.5,61.8333 182.5,62.1667 182.5,62.5C 180.544,60.8861 178.544,59.2194 176.5,57.5C 175.075,56.078 174.075,54.4113 173.5,52.5 Z"/></g>
<g><path style="opacity:1" fill="#c5bac6" d="M 61.5,71.5 C 60.2876,70.7701 59.2876,69.7701 58.5,68.5C 57.6143,69.325 57.281,70.325 57.5,71.5C 56.0687,70.2196 55.4021,68.5529 55.5,66.5C 59.6663,65.0605 61.6663,66.7272 61.5,71.5 Z"/></g>
<g><path style="opacity:1" fill="#faf4fb" d="M 176.5,57.5 C 178.544,59.2194 180.544,60.8861 182.5,62.5C 186.009,66.8553 189.009,71.5219 191.5,76.5C 189.856,76.7135 188.356,76.3802 187,75.5C 185.333,72.5 183.667,69.5 182,66.5C 181.667,67.1667 181.333,67.8333 181,68.5C 180.489,66.1218 179.822,63.7885 179,61.5C 177.229,60.6959 175.729,59.5292 174.5,58C 175.094,57.5357 175.761,57.369 176.5,57.5 Z"/></g>
<g><path style="opacity:1" fill="#fdf5fd" d="M 24.5,71.5 C 23.9198,75.81 23.5865,80.1434 23.5,84.5C 22.5318,86.6074 22.1984,88.9407 22.5,91.5C 20.9476,86.7254 20.4476,81.7254 21,76.5C 21.9022,74.5692 23.0688,72.9025 24.5,71.5 Z"/></g>
<g><path style="opacity:1" fill="#faeffa" d="M 35.5,54.5 C 36.6791,57.9547 36.0124,60.2881 33.5,61.5C 33.8333,62.1667 34.1667,62.8333 34.5,63.5C 34.1543,64.6956 33.6543,64.6956 33,63.5C 32.2797,65.1124 32.4464,66.6124 33.5,68C 31.4515,70.7602 30.4515,73.9269 30.5,77.5C 29.9495,87.1821 29.6161,96.8487 29.5,106.5C 26.3257,91.1101 27.159,75.7768 32,60.5C 32.7162,58.1209 33.8828,56.1209 35.5,54.5 Z"/></g>
<g><path style="opacity:1" fill="#faf2fa" d="M 93.5,59.5 C 88.8034,63.533 84.8034,68.1996 81.5,73.5C 79.6747,77.2183 78.008,80.8849 76.5,84.5C 75.7407,79.1673 77.074,74.5006 80.5,70.5C 81.086,70.7093 81.586,71.0426 82,71.5C 82.7431,68.4888 84.0765,65.8221 86,63.5C 86.3333,63.8333 86.6667,64.1667 87,64.5C 88.4685,61.8579 90.6352,60.1912 93.5,59.5 Z"/></g>
<g><path style="opacity:1" fill="#f7eff8" d="M 55.5,66.5 C 55.4021,68.5529 56.0687,70.2196 57.5,71.5C 59.1075,74.9909 60.1075,78.6576 60.5,82.5C 59.5,82.5 58.5,82.5 57.5,82.5C 57.109,77.7044 55.7756,73.2044 53.5,69C 54.0659,68.0053 54.7326,67.172 55.5,66.5 Z"/></g>
<g><path style="opacity:1" fill="#c1adc2" d="M 61.5,71.5 C 61.4021,73.5529 62.0687,75.2196 63.5,76.5C 65.5641,81.0258 67.2308,85.6925 68.5,90.5C 68.6633,92.8568 68.4966,95.1902 68,97.5C 67.6174,96.944 67.1174,96.6107 66.5,96.5C 65.1311,94.2677 64.1311,91.9344 63.5,89.5C 63.0652,86.8427 62.0652,84.5093 60.5,82.5C 60.1075,78.6576 59.1075,74.9909 57.5,71.5C 57.281,70.325 57.6143,69.325 58.5,68.5C 59.2876,69.7701 60.2876,70.7701 61.5,71.5 Z"/></g>
<g><path style="opacity:1" fill="#fbf3fb" d="M 194.5,71.5 C 198.192,71.6952 200.026,73.6952 200,77.5C 200.333,77.1667 200.667,76.8333 201,76.5C 202.123,79.2487 203.623,81.7487 205.5,84C 205.167,84.3333 204.833,84.6667 204.5,85C 206.113,87.2276 206.78,89.7276 206.5,92.5C 202.768,85.3725 198.768,78.3725 194.5,71.5 Z"/></g>
<g><path style="opacity:1" fill="#f9f0f9" d="M 89.5,71.5 C 89.5394,72.5832 89.8728,73.5832 90.5,74.5C 86.2163,78.4169 84.0496,83.4169 84,89.5C 83.2105,91.8677 82.0438,94.0344 80.5,96C 80.5353,101.21 80.5353,106.377 80.5,111.5C 80.1667,111.5 79.8333,111.5 79.5,111.5C 79.5,110.5 79.5,109.5 79.5,108.5C 79.1723,100.407 79.8389,92.4072 81.5,84.5C 82.61,79.0879 85.2767,74.7546 89.5,71.5 Z"/></g>
<g><path style="opacity:1" fill="#f5ecf5" d="M 195.5,82.5 C 198.54,87.2756 201.207,92.2756 203.5,97.5C 202.542,97.0472 201.708,96.3805 201,95.5C 200.195,97.9011 199.362,97.7344 198.5,95C 200.992,93.7508 200.825,92.5842 198,91.5C 197.599,88.3006 196.766,85.3006 195.5,82.5 Z"/></g>
<g><path style="opacity:1" fill="#faf0fa" d="M 152.5,64.5 C 156.238,67.626 158.738,71.626 160,76.5C 161.516,84.638 161.682,92.638 160.5,100.5C 160.757,94.1021 160.257,87.7688 159,81.5C 158.837,79.324 158.004,77.4907 156.5,76C 156.833,75.6667 157.167,75.3333 157.5,75C 154.433,72.3163 152.1,69.6497 150.5,67C 151.381,66.2917 152.047,65.4584 152.5,64.5 Z"/></g>
<g><path style="opacity:1" fill="#f4ebf5" d="M 63.5,89.5 C 64.1311,91.9344 65.1311,94.2677 66.5,96.5C 67.1667,98.8333 67.8333,101.167 68.5,103.5C 66.9081,102.398 66.0748,103.065 66,105.5C 63.9849,103.527 64.1516,101.86 66.5,100.5C 64.1207,97.2429 63.1207,93.5762 63.5,89.5 Z"/></g>
<g><path style="opacity:1" fill="#fbf3fc" d="M 63.5,76.5 C 65.0744,76.9371 66.2411,77.9371 67,79.5C 68.7774,83.7057 69.944,88.039 70.5,92.5C 71.8333,92.5 73.1667,92.5 74.5,92.5C 74.2627,91.209 74.596,90.209 75.5,89.5C 75.5,91.8333 75.5,94.1667 75.5,96.5C 74.9348,98.42 73.9348,100.087 72.5,101.5C 72.1667,100.833 71.8333,100.167 71.5,99.5C 70.3711,96.4915 69.3711,93.4915 68.5,90.5C 67.2308,85.6925 65.5641,81.0258 63.5,76.5 Z"/></g>
<g><path style="opacity:1" fill="#c5b5c4" d="M 68.5,90.5 C 69.3711,93.4915 70.3711,96.4915 71.5,99.5C 70.5318,101.607 70.1984,103.941 70.5,106.5C 69.8333,105.833 69.1667,105.167 68.5,104.5C 68.5,104.167 68.5,103.833 68.5,103.5C 67.8333,101.167 67.1667,98.8333 66.5,96.5C 67.1174,96.6107 67.6174,96.944 68,97.5C 68.4966,95.1902 68.6633,92.8568 68.5,90.5 Z"/></g>
<g><path style="opacity:1" fill="#c0b2c1" d="M 188.5,64.5 C 188.833,64.5 189.167,64.5 189.5,64.5C 190.934,67.0472 192.6,69.3805 194.5,71.5C 198.768,78.3725 202.768,85.3725 206.5,92.5C 207.317,95.6185 208.317,98.6185 209.5,101.5C 209.5,101.833 209.5,102.167 209.5,102.5C 208.732,101.737 208.232,100.737 208,99.5C 207.049,99.8836 206.216,100.217 205.5,100.5C 204.833,99.5 204.167,98.5 203.5,97.5C 201.207,92.2756 198.54,87.2756 195.5,82.5C 195.13,79.733 193.796,77.733 191.5,76.5C 189.009,71.5219 186.009,66.8553 182.5,62.5C 182.5,62.1667 182.5,61.8333 182.5,61.5C 182.435,61.0618 182.601,60.7284 183,60.5C 184.599,62.056 186.099,63.7227 187.5,65.5C 188.107,65.3764 188.44,65.0431 188.5,64.5 Z"/></g>
<g><path style="opacity:1" fill="#edd6f0" d="M 75.5,96.5 C 75.5,98.8333 75.5,101.167 75.5,103.5C 75.6309,104.376 75.2975,105.043 74.5,105.5C 73.8243,104.398 73.1577,103.398 72.5,102.5C 72.5,102.167 72.5,101.833 72.5,101.5C 73.9348,100.087 74.9348,98.42 75.5,96.5 Z"/></g>
<g><path style="opacity:1" fill="#f6ebf4" d="M 203.5,97.5 C 204.167,98.5 204.833,99.5 205.5,100.5C 206.374,103.789 207.041,107.123 207.5,110.5C 206.542,110.047 205.708,109.381 205,108.5C 204.452,104.83 203.952,101.163 203.5,97.5 Z"/></g>
<g><path style="opacity:1" fill="#faf0fa" d="M 221.5,127.5 C 216.166,119.891 212.166,111.557 209.5,102.5C 209.5,102.167 209.5,101.833 209.5,101.5C 210.222,101.082 210.722,100.416 211,99.5C 213.007,102.04 213.673,104.707 213,107.5C 214.717,108.988 215.884,110.821 216.5,113C 215.167,114.84 215.334,115.34 217,114.5C 219.467,118.044 220.967,122.378 221.5,127.5 Z"/></g>
<g><path style="opacity:1" fill="#e3d5e6" d="M 160.5,105.5 C 160.435,108.428 159.768,111.095 158.5,113.5C 158.325,111.379 158.659,109.379 159.5,107.5C 159.328,106.508 159.662,105.842 160.5,105.5 Z"/></g>
<g><path style="opacity:1" fill="#c2a8c7" d="M 72.5,102.5 C 73.1577,103.398 73.8243,104.398 74.5,105.5C 75.2975,105.043 75.6309,104.376 75.5,103.5C 76.6912,105.327 78.0245,106.993 79.5,108.5C 79.5,109.5 79.5,110.5 79.5,111.5C 79.8256,115.884 79.4922,120.217 78.5,124.5C 77.9013,121.157 76.568,118.157 74.5,115.5C 73.5415,111.204 72.8748,106.871 72.5,102.5 Z"/></g>
<g><path style="opacity:1" fill="#f4ebf4" d="M 207.5,110.5 C 209.631,115.542 211.964,120.542 214.5,125.5C 213.448,125.649 212.448,125.483 211.5,125C 211.833,124.667 212.167,124.333 212.5,124C 211.43,121.258 209.93,118.758 208,116.5C 207.505,114.527 207.338,112.527 207.5,110.5 Z"/></g>
<g><path style="opacity:1" fill="#faf1fa" d="M 30.5,113.5 C 32.3678,115.305 34.0345,117.138 35.5,119C 34.9781,119.561 34.6448,120.228 34.5,121C 34.6107,122.722 35.1107,122.888 36,121.5C 36.3333,123.167 36.6667,124.833 37,126.5C 37.3333,125.833 37.6667,125.167 38,124.5C 39.2367,128.06 39.7367,131.727 39.5,135.5C 37.962,132.101 36.1287,128.767 34,125.5C 32.9236,121.441 31.757,117.441 30.5,113.5 Z"/></g>
<g><path style="opacity:1" fill="#f7eef7" d="M 23.5,84.5 C 23.081,108.865 29.7477,130.865 43.5,150.5C 41.5495,151.498 39.5495,151.332 37.5,150C 38.5,149.667 39.5,149.333 40.5,149C 39.3224,148.033 37.989,147.533 36.5,147.5C 36.8333,146.833 37.1667,146.167 37.5,145.5C 36.066,143.78 35.2326,141.78 35,139.5C 33.3022,137.734 31.9689,135.734 31,133.5C 30.6667,133.833 30.3333,134.167 30,134.5C 28.8011,131.274 28.3011,127.941 28.5,124.5C 27.5,124.5 26.5,124.5 25.5,124.5C 25.7776,121.71 25.1109,119.21 23.5,117C 24.5174,114.213 24.6841,111.38 24,108.5C 23.3333,105.833 22.6667,105.833 22,108.5C 21.7083,106.674 21.875,104.841 22.5,103C 20.0063,98.9995 20.0063,95.1662 22.5,91.5C 22.1984,88.9407 22.5318,86.6074 23.5,84.5 Z"/></g>
<g><path style="opacity:1" fill="#fbf2fa" d="M 159.5,107.5 C 158.659,109.379 158.325,111.379 158.5,113.5C 155.648,119.416 152.648,125.416 149.5,131.5C 148.148,132.524 146.815,133.524 145.5,134.5C 144.433,132.121 145.433,131.121 148.5,131.5C 148.67,130.178 148.337,129.011 147.5,128C 149.259,126.992 150.426,125.492 151,123.5C 151.333,123.833 151.667,124.167 152,124.5C 153.096,118.977 154.763,113.644 157,108.5C 157.671,107.748 158.504,107.414 159.5,107.5 Z"/></g>
<g><path style="opacity:1" fill="#e2d0e1" d="M 81.5,125.5 C 82.3092,127.028 82.9759,128.694 83.5,130.5C 83.5,131.5 83.5,132.5 83.5,133.5C 82.8826,133.389 82.3826,133.056 82,132.5C 81.5034,130.19 81.3367,127.857 81.5,125.5 Z"/></g>
<g><path style="opacity:1" fill="#f6eff6" d="M 214.5,125.5 C 216.831,128.825 219.164,132.158 221.5,135.5C 219.669,136.052 218.003,136.052 216.5,135.5C 216.833,134.833 217.167,134.167 217.5,133.5C 214.196,131.579 213.196,128.912 214.5,125.5 Z"/></g>
<g><path style="opacity:1" fill="#f8fef3" d="M 88.5,140.5 C 86.744,139.448 86.0773,137.781 86.5,135.5C 86.3398,133.801 86.5065,132.134 87,130.5C 88.016,131.634 88.6827,131.301 89,129.5C 89.9343,132.136 90.7676,134.803 91.5,137.5C 91.4841,139.516 90.4841,140.516 88.5,140.5 Z"/></g>
<g><path style="opacity:1" fill="#f9f0fa" d="M 143.5,137.5 C 141.5,140.167 139.167,142.5 136.5,144.5C 135.829,143.153 135.829,141.986 136.5,141C 138.939,140.226 140.773,138.726 142,136.5C 142.383,137.056 142.883,137.389 143.5,137.5 Z"/></g>
<g><path style="opacity:1" fill="#eee6ef" d="M 222.5,137.5 C 225.881,139.88 228.547,142.88 230.5,146.5C 229.504,146.586 228.671,146.252 228,145.5C 225.92,142.935 224.087,140.268 222.5,137.5 Z"/></g>
<g><path style="opacity:1" fill="#c1b1c4" d="M 209.5,102.5 C 212.166,111.557 216.166,119.891 221.5,127.5C 222.459,131.402 224.792,134.068 228.5,135.5C 230.709,139.059 233.376,142.393 236.5,145.5C 242.9,149.699 249.567,153.366 256.5,156.5C 259.117,157.784 261.117,159.784 262.5,162.5C 263.455,164.746 264.122,167.079 264.5,169.5C 263.764,167.771 262.43,166.771 260.5,166.5C 259.751,165.469 259.085,164.302 258.5,163C 252.277,159.271 245.943,155.771 239.5,152.5C 236.968,149.771 233.968,147.771 230.5,146.5C 228.547,142.88 225.881,139.88 222.5,137.5C 222.167,136.833 221.833,136.167 221.5,135.5C 219.164,132.158 216.831,128.825 214.5,125.5C 211.964,120.542 209.631,115.542 207.5,110.5C 207.041,107.123 206.374,103.789 205.5,100.5C 206.216,100.217 207.049,99.8836 208,99.5C 208.232,100.737 208.732,101.737 209.5,102.5 Z"/></g>
<g><path style="opacity:1" fill="#c0b0c3" d="M 62.5,19.5 C 63.9187,20.4511 65.5853,20.7845 67.5,20.5C 65.364,21.6528 63.364,22.9862 61.5,24.5C 58.2228,26.1152 55.2228,28.1152 52.5,30.5C 50.5,31.8333 48.8333,33.5 47.5,35.5C 43.8524,38.7154 40.6857,42.3821 38,46.5C 36.4086,48.9266 35.5752,51.5933 35.5,54.5C 33.8828,56.1209 32.7162,58.1209 32,60.5C 27.159,75.7768 26.3257,91.1101 29.5,106.5C 29.298,108.95 29.6314,111.283 30.5,113.5C 31.757,117.441 32.9236,121.441 34,125.5C 36.1287,128.767 37.962,132.101 39.5,135.5C 42.1348,141.78 46.1348,146.78 51.5,150.5C 54.1658,151.842 56.4992,153.675 58.5,156C 59.448,156.483 60.448,156.649 61.5,156.5C 65.2263,158.768 69.2263,160.435 73.5,161.5C 70.9621,161.493 68.4621,161.159 66,160.5C 64.6244,160.684 63.7911,161.351 63.5,162.5C 62.8333,162.5 62.1667,162.5 61.5,162.5C 55.364,158.681 49.364,154.681 43.5,150.5C 29.7477,130.865 23.081,108.865 23.5,84.5C 23.5865,80.1434 23.9198,75.81 24.5,71.5C 25.6641,67.9892 26.6641,64.3225 27.5,60.5C 29.1674,55.4791 31.1674,50.4791 33.5,45.5C 38.0758,40.0133 42.4091,34.3467 46.5,28.5C 48.0269,28.573 49.0269,27.9063 49.5,26.5C 53.4293,23.3694 57.7627,21.0361 62.5,19.5 Z"/></g>
<g><path style="opacity:1" fill="#f6ecf7" d="M 161.5,117.5 C 160.261,122.788 158.928,128.121 157.5,133.5C 156.271,134.281 154.938,134.781 153.5,135C 153.056,136.533 152.723,138.033 152.5,139.5C 150.345,140.41 148.345,141.577 146.5,143C 147.167,143.333 147.833,143.667 148.5,144C 144.864,145.678 144.197,147.844 146.5,150.5C 145.167,150.5 143.833,150.5 142.5,150.5C 142.504,170.888 143.504,191.222 145.5,211.5C 144.128,206.439 142.795,201.273 141.5,196C 142.108,194.769 142.441,193.436 142.5,192C 141.728,178.183 141.228,164.35 141,150.5C 140.667,150.167 140.333,149.833 140,149.5C 139.691,150.766 139.191,151.933 138.5,153C 132.907,155.46 127.241,157.627 121.5,159.5C 139.913,150.418 153.247,136.418 161.5,117.5 Z"/></g>
<g><path style="opacity:1" fill="#faf0f9" d="M 135.5,144.5 C 133.702,147.193 131.369,149.193 128.5,150.5C 128.335,145.29 130.669,143.29 135.5,144.5 Z"/></g>
<g><path style="opacity:1" fill="#f8eef8" d="M 256.5,156.5 C 249.567,153.366 242.9,149.699 236.5,145.5C 233.376,142.393 230.709,139.059 228.5,135.5C 229.895,135.562 231.395,135.562 233,135.5C 233.273,137.101 233.773,138.601 234.5,140C 239.661,143.416 244.994,146.582 250.5,149.5C 253.208,151.266 255.208,153.599 256.5,156.5 Z"/></g>
<g><path style="opacity:1" fill="#f8eff9" d="M 51.5,150.5 C 46.1348,146.78 42.1348,141.78 39.5,135.5C 40.9391,134.491 42.2724,134.824 43.5,136.5C 45.7641,139.403 47.2641,142.403 48,145.5C 48.6667,144.833 49.3333,144.167 50,143.5C 50.662,145.813 51.162,148.146 51.5,150.5 Z"/></g>
<g><path style="opacity:1" fill="#fbf1fb" d="M 83.5,130.5 C 85.0276,131.802 86.0276,133.469 86.5,135.5C 86.0773,137.781 86.744,139.448 88.5,140.5C 88.6926,145.009 89.6926,149.343 91.5,153.5C 91.315,154.584 90.9817,155.584 90.5,156.5C 87.9988,148.988 85.6654,141.321 83.5,133.5C 83.5,132.5 83.5,131.5 83.5,130.5 Z"/></g>
<g><path style="opacity:1" fill="#fdfdfd" d="M 145.5,211.5 C 145.5,211.833 145.5,212.167 145.5,212.5C 145.771,214.38 145.104,215.713 143.5,216.5C 139.078,215.73 134.745,215.396 130.5,215.5C 127.869,215.782 125.369,216.449 123,217.5C 116.227,216.658 109.393,216.491 102.5,217C 102.833,216.667 103.167,216.333 103.5,216C 101.187,212.986 100.853,209.653 102.5,206C 101.938,202.346 101.271,198.846 100.5,195.5C 99.4963,188.803 98.3296,182.136 97,175.5C 96.6174,176.056 96.1174,176.389 95.5,176.5C 94.5448,174.254 93.8782,171.921 93.5,169.5C 97.1838,167.914 101.184,166.247 105.5,164.5C 105.833,164.5 106.167,164.5 106.5,164.5C 110.835,164.083 115.168,163.583 119.5,163C 119.167,162.667 118.833,162.333 118.5,162C 119.942,161.623 120.942,160.79 121.5,159.5C 127.241,157.627 132.907,155.46 138.5,153C 139.191,151.933 139.691,150.766 140,149.5C 140.333,149.833 140.667,150.167 141,150.5C 141.228,164.35 141.728,178.183 142.5,192C 142.441,193.436 142.108,194.769 141.5,196C 142.795,201.273 144.128,206.439 145.5,211.5 Z"/></g>
<g><path style="opacity:1" fill="#fbf3fb" d="M 125.5,151.5 C 119.472,155.515 112.805,158.182 105.5,159.5C 105.082,158.778 104.416,158.278 103.5,158C 107.662,157.474 111.662,156.474 115.5,155C 117.958,151.126 121.292,149.959 125.5,151.5 Z"/></g>
<g><path style="opacity:1" fill="#faf0fa" d="M 68.5,104.5 C 69.1667,105.167 69.8333,105.833 70.5,106.5C 76.8292,124.828 82.1625,143.495 86.5,162.5C 82.1311,162.533 77.7978,162.2 73.5,161.5C 69.2263,160.435 65.2263,158.768 61.5,156.5C 63.9393,157.053 66.2727,157.053 68.5,156.5C 70.4445,158.589 72.6112,159.256 75,158.5C 79.2888,161.273 81.7888,160.106 82.5,155C 82.8146,152.296 81.8146,150.296 79.5,149C 80.4154,144.774 79.9154,140.607 78,136.5C 77.6667,136.833 77.3333,137.167 77,137.5C 76.1628,135.649 75.3295,133.816 74.5,132C 75.1667,131.667 75.8333,131.333 76.5,131C 75.4077,127.801 73.741,124.968 71.5,122.5C 72.1667,122.167 72.8333,121.833 73.5,121.5C 72.1519,119.847 70.8186,118.18 69.5,116.5C 68.2604,112.392 67.927,108.392 68.5,104.5 Z"/></g>
<g><path style="opacity:1" fill="#f9ecf8" d="M 91.5,159.5 C 96.1667,159.5 100.833,159.5 105.5,159.5C 103.193,161.047 100.527,161.713 97.5,161.5C 95.0478,161.461 93.0478,160.794 91.5,159.5 Z"/></g>
<g><path style="opacity:1" fill="#fbf1fb" d="M 239.5,152.5 C 245.943,155.771 252.277,159.271 258.5,163C 259.085,164.302 259.751,165.469 260.5,166.5C 260.435,169.428 259.768,172.095 258.5,174.5C 258.338,169.329 256.672,165.495 253.5,163C 250.523,162.519 247.857,161.352 245.5,159.5C 246.262,159.089 247.262,158.923 248.5,159C 244.829,157.607 241.162,156.107 237.5,154.5C 238.243,153.818 238.909,153.151 239.5,152.5 Z"/></g>
<g><path style="opacity:1" fill="#efe7f3" d="M 121.5,159.5 C 120.942,160.79 119.942,161.623 118.5,162C 118.833,162.333 119.167,162.667 119.5,163C 115.168,163.583 110.835,164.083 106.5,164.5C 111.293,162.465 116.293,160.798 121.5,159.5 Z"/></g>
<g><path style="opacity:1" fill="#c1a9c7" d="M 93.5,166.5 C 92.6618,166.842 92.3284,167.508 92.5,168.5C 91.2022,167.884 90.2022,167.884 89.5,168.5C 88.7777,167.449 87.7777,166.782 86.5,166.5C 85.9423,165.21 84.9423,164.377 83.5,164C 87.7972,162.908 92.1305,162.575 96.5,163C 94.9443,163.72 93.9443,164.887 93.5,166.5 Z"/></g>
<g><path style="opacity:1" fill="#f8effb" d="M 61.5,162.5 C 62.1667,162.5 62.8333,162.5 63.5,162.5C 67.5841,163.848 71.5841,165.181 75.5,166.5C 70.0937,167.26 65.427,165.927 61.5,162.5 Z"/></g>
<g><path style="opacity:1" fill="#fef2fd" d="M 146.5,150.5 C 147.074,152.788 148.074,154.955 149.5,157C 149.284,164.702 149.284,172.368 149.5,180C 148.872,182.939 148.205,185.772 147.5,188.5C 146.678,175.851 146.345,163.185 146.5,150.5 Z"/></g>
<g><path style="opacity:1" fill="#f5ebf5" d="M 105.5,164.5 C 101.184,166.247 97.1838,167.914 93.5,169.5C 93.5,168.833 93.1667,168.5 92.5,168.5C 92.3284,167.508 92.6618,166.842 93.5,166.5C 97.5,165.833 101.5,165.167 105.5,164.5 Z"/></g>
<g><path style="opacity:1" fill="#f7edf8" d="M 75.5,166.5 C 79.1667,166.5 82.8333,166.5 86.5,166.5C 87.7777,166.782 88.7777,167.449 89.5,168.5C 90.7957,173.062 91.4624,177.729 91.5,182.5C 90.548,181.548 89.548,180.548 88.5,179.5C 89.6236,176 89.1236,172.667 87,169.5C 86.6667,169.833 86.3333,170.167 86,170.5C 82.5156,169.05 79.0156,167.717 75.5,166.5 Z"/></g>
<g><path style="opacity:1" fill="#f6ebf7" d="M 262.5,162.5 C 263.766,163.09 265.099,163.59 266.5,164C 265.167,166.333 265.167,168.667 266.5,171C 265.572,171.388 264.905,172.055 264.5,173C 265.409,174.789 265.576,176.623 265,178.5C 264.667,178.167 264.333,177.833 264,177.5C 263.667,178.5 263.333,179.5 263,180.5C 262.23,179.402 261.397,179.402 260.5,180.5C 262.121,176.927 263.454,173.261 264.5,169.5C 264.122,167.079 263.455,164.746 262.5,162.5 Z"/></g>
<g><path style="opacity:1" fill="#f9f2f9" d="M 189.5,190.5 C 192.024,187.433 194.024,183.933 195.5,180C 194.314,177.569 192.314,176.403 189.5,176.5C 187.052,175.527 184.385,175.194 181.5,175.5C 183.117,174.028 185.117,173.361 187.5,173.5C 189.32,173.649 190.82,174.316 192,175.5C 193,175.167 194,174.833 195,174.5C 198.137,181.28 196.304,186.613 189.5,190.5 Z"/></g>
<g><path style="opacity:1" fill="#e1d3e1" d="M 181.5,175.5 C 184.385,175.194 187.052,175.527 189.5,176.5C 184.13,176.392 178.797,176.725 173.5,177.5C 173.5,177.167 173.5,176.833 173.5,176.5C 176.127,175.908 178.794,175.575 181.5,175.5 Z"/></g>
<g><path style="opacity:1" fill="#faf0f9" d="M 258.5,174.5 C 256.549,178.442 254.216,182.109 251.5,185.5C 250.496,188.845 249.496,192.179 248.5,195.5C 246.121,194.085 246.121,192.418 248.5,190.5C 247.212,182.435 250.545,177.102 258.5,174.5 Z"/></g>
<g><path style="opacity:1" fill="#c2b3c4" d="M 92.5,168.5 C 93.1667,168.5 93.5,168.833 93.5,169.5C 93.8782,171.921 94.5448,174.254 95.5,176.5C 96.1495,178.435 96.4828,180.435 96.5,182.5C 95.8485,181.909 95.1818,181.243 94.5,180.5C 93.5344,182.396 93.2011,184.396 93.5,186.5C 92.8333,185.167 92.1667,183.833 91.5,182.5C 91.4624,177.729 90.7957,173.062 89.5,168.5C 90.2022,167.884 91.2022,167.884 92.5,168.5 Z"/></g>
<g><path style="opacity:1" fill="#fafdf6" d="M 155.5,187.5 C 155.011,188.995 154.345,190.329 153.5,191.5C 152.849,192.091 152.182,192.757 151.5,193.5C 150.643,192.264 149.977,190.931 149.5,189.5C 150.286,184.219 150.786,178.885 151,173.5C 152.487,172.259 153.32,172.759 153.5,175C 154.215,179.172 154.881,183.338 155.5,187.5 Z"/></g>
<g><path style="opacity:1" fill="#fcf2fc" d="M 173.5,176.5 C 173.5,176.833 173.5,177.167 173.5,177.5C 169.899,178.634 166.565,180.301 163.5,182.5C 163.461,181.417 163.127,180.417 162.5,179.5C 165.383,177.179 168.717,176.012 172.5,176C 170.405,175.444 170.238,174.944 172,174.5C 173.03,174.836 173.53,175.503 173.5,176.5 Z"/></g>
<g><path style="opacity:1" fill="#e8daed" d="M 260.5,180.5 C 260.573,182.027 259.906,183.027 258.5,183.5C 258.427,181.973 259.094,180.973 260.5,180.5 Z"/></g>
<g><path style="opacity:1" fill="#f9eefa" d="M 69.5,188.5 C 63.4929,186.009 57.1595,185.009 50.5,185.5C 50.9867,184.527 51.4867,183.527 52,182.5C 55.7808,183.734 59.6141,183.734 63.5,182.5C 65.5689,182.824 65.9023,183.658 64.5,185C 66.8808,185.223 68.5475,186.39 69.5,188.5 Z"/></g>
<g><path style="opacity:1" fill="#f7eff7" d="M 163.5,182.5 C 161.5,184.833 159.5,187.167 157.5,189.5C 155.552,191.32 154.552,193.654 154.5,196.5C 154.5,197.833 154.5,199.167 154.5,200.5C 153.523,197.713 153.19,194.713 153.5,191.5C 154.345,190.329 155.011,188.995 155.5,187.5C 156.404,186.791 156.737,185.791 156.5,184.5C 159.108,184.6 161.442,183.933 163.5,182.5 Z"/></g>
<g><path style="opacity:1" fill="#ccabce" d="M 53.5,189.5 C 53.5,190.833 53.5,192.167 53.5,193.5C 52.1667,193.167 50.8333,192.833 49.5,192.5C 49.5,191.167 49.5,189.833 49.5,188.5C 51.099,188.232 52.4324,188.566 53.5,189.5 Z"/></g>
<g><path style="opacity:1" fill="#f3e6f3" d="M 258.5,183.5 C 256.885,186.839 255.551,190.339 254.5,194C 254.943,195.825 255.277,197.658 255.5,199.5C 254.223,198.306 253.556,196.64 253.5,194.5C 253.3,189.904 254.967,186.237 258.5,183.5 Z"/></g>
<g><path style="opacity:1" fill="#f7edf9" d="M 53.5,189.5 C 66.475,188.76 75.975,194.093 82,205.5C 82.4935,207.134 82.6602,208.801 82.5,210.5C 80.8333,210.5 79.1667,210.5 77.5,210.5C 77.5,210.167 77.5,209.833 77.5,209.5C 78.8734,209.657 80.2068,209.49 81.5,209C 78.1841,206.2 76.0174,202.7 75,198.5C 74.3333,199.167 73.6667,199.833 73,200.5C 72.393,198.257 71.0597,196.59 69,195.5C 65.0697,194.367 61.4031,192.701 58,190.5C 55.535,192.054 55.035,194.054 56.5,196.5C 55.1001,195.9 54.1001,194.9 53.5,193.5C 53.5,192.167 53.5,190.833 53.5,189.5 Z"/></g>
<g><path style="opacity:1" fill="#c0afc2" d="M 260.5,166.5 C 262.43,166.771 263.764,167.771 264.5,169.5C 263.454,173.261 262.121,176.927 260.5,180.5C 259.094,180.973 258.427,181.973 258.5,183.5C 254.967,186.237 253.3,189.904 253.5,194.5C 253.556,196.64 254.223,198.306 255.5,199.5C 261.816,205.069 263.983,212.069 262,220.5C 259.859,223.813 260.026,226.813 262.5,229.5C 262.557,230.609 262.89,231.609 263.5,232.5C 264.933,235.643 265.599,238.976 265.5,242.5C 264.057,248.904 263.057,255.404 262.5,262C 262.486,268.243 263.153,274.409 264.5,280.5C 263.932,285.777 262.599,290.777 260.5,295.5C 260.167,296.5 259.5,297.167 258.5,297.5C 254.544,299.788 251.211,302.788 248.5,306.5C 248.167,306.5 247.833,306.5 247.5,306.5C 243.882,308.137 240.549,310.137 237.5,312.5C 231.871,313.929 226.537,315.929 221.5,318.5C 221.167,318.5 220.833,318.5 220.5,318.5C 212.324,321.42 205.324,326.087 199.5,332.5C 199.5,330.5 198.5,329.5 196.5,329.5C 200.164,325.843 204.164,322.509 208.5,319.5C 209.627,318.878 210.627,318.045 211.5,317C 216.648,315.297 221.648,313.463 226.5,311.5C 227.791,311.737 228.791,311.404 229.5,310.5C 232.78,309.193 235.78,307.527 238.5,305.5C 239.833,305.167 241.167,304.833 242.5,304.5C 245.117,303.214 247.45,301.547 249.5,299.5C 254.069,296.263 257.069,291.929 258.5,286.5C 259.972,284.883 260.639,282.883 260.5,280.5C 258.729,271.567 258.229,262.567 259,253.5C 262.328,246.537 262.328,239.537 259,232.5C 257.89,230.963 256.39,230.297 254.5,230.5C 253.766,229.292 253.433,227.959 253.5,226.5C 257.944,221.732 259.444,216.065 258,209.5C 257.617,208.944 257.117,208.611 256.5,208.5C 256.461,207.417 256.127,206.417 255.5,205.5C 250.8,203.804 248.467,200.47 248.5,195.5C 249.496,192.179 250.496,188.845 251.5,185.5C 254.216,182.109 256.549,178.442 258.5,174.5C 259.768,172.095 260.435,169.428 260.5,166.5 Z"/></g>
<g><path style="opacity:1" fill="#f4edf6" d="M 48.5,186.5 C 48.2053,188.735 48.5386,190.735 49.5,192.5C 49.7036,194.685 50.3702,196.685 51.5,198.5C 49.9826,198.489 48.8159,197.823 48,196.5C 47.6852,193.628 47.1852,190.795 46.5,188C 46.8361,186.97 47.5028,186.47 48.5,186.5 Z"/></g>
<g><path style="opacity:1" fill="#f5ecf7" d="M 70.5,188.5 C 72.8067,188.986 74.9734,188.986 77,188.5C 77.2183,190.768 78.0516,192.768 79.5,194.5C 76.3197,192.745 73.3197,190.745 70.5,188.5 Z"/></g>
<g><path style="opacity:1" fill="#c0aec2" d="M 189.5,176.5 C 192.314,176.403 194.314,177.569 195.5,180C 194.024,183.933 192.024,187.433 189.5,190.5C 187.167,192.5 184.833,194.5 182.5,196.5C 174.187,201.719 165.187,203.386 155.5,201.5C 154.833,201.5 154.5,201.167 154.5,200.5C 154.5,199.167 154.5,197.833 154.5,196.5C 156.065,194.491 157.065,192.157 157.5,189.5C 159.5,187.167 161.5,184.833 163.5,182.5C 166.565,180.301 169.899,178.634 173.5,177.5C 178.797,176.725 184.13,176.392 189.5,176.5 Z"/></g>
<g><path style="opacity:1" fill="#fbf1fb" d="M 188.5,184.5 C 183.855,191.742 177.189,196.075 168.5,197.5C 165.833,197.5 163.167,197.5 160.5,197.5C 160.232,195.901 160.566,194.568 161.5,193.5C 161.721,196.097 162.221,196.097 163,193.5C 164.516,196.006 166.682,196.84 169.5,196C 175.861,192.155 182.194,188.322 188.5,184.5 Z"/></g>
<g><path style="opacity:1" fill="#fcfbfb" d="M 179.5,180.5 C 182.833,180.5 186.167,180.5 189.5,180.5C 189.768,182.099 189.434,183.432 188.5,184.5C 182.194,188.322 175.861,192.155 169.5,196C 166.682,196.84 164.516,196.006 163,193.5C 162.221,196.097 161.721,196.097 161.5,193.5C 162.11,192.609 162.443,191.609 162.5,190.5C 166.259,190.534 168.259,189.034 168.5,186C 172.723,185.085 176.39,183.252 179.5,180.5 Z"/></g>
<g><path style="opacity:1" fill="#f7eef6" d="M 179.5,180.5 C 176.39,183.252 172.723,185.085 168.5,186C 168.259,189.034 166.259,190.534 162.5,190.5C 166.733,184.878 172.399,181.545 179.5,180.5 Z"/></g>
<g><path style="opacity:1" fill="#fcfafb" d="M 77.5,209.5 C 77.1667,209.5 76.8333,209.5 76.5,209.5C 71.4429,206.483 66.1095,203.816 60.5,201.5C 58.4131,200.415 57.0798,198.749 56.5,196.5C 55.035,194.054 55.535,192.054 58,190.5C 61.4031,192.701 65.0697,194.367 69,195.5C 71.0597,196.59 72.393,198.257 73,200.5C 73.6667,199.833 74.3333,199.167 75,198.5C 76.0174,202.7 78.1841,206.2 81.5,209C 80.2068,209.49 78.8734,209.657 77.5,209.5 Z"/></g>
<g><path style="opacity:1" fill="#f8eaf9" d="M 100.5,195.5 C 100.5,198.833 100.5,202.167 100.5,205.5C 100.167,205.5 99.8333,205.5 99.5,205.5C 99.2144,197.602 98.2144,189.935 96.5,182.5C 96.4828,180.435 96.1495,178.435 95.5,176.5C 96.1174,176.389 96.6174,176.056 97,175.5C 98.3296,182.136 99.4963,188.803 100.5,195.5 Z"/></g>
<g><path style="opacity:1" fill="#decfe1" d="M 157.5,189.5 C 157.065,192.157 156.065,194.491 154.5,196.5C 154.552,193.654 155.552,191.32 157.5,189.5 Z"/></g>
<g><path style="opacity:1" fill="#ead9ef" d="M 162.5,190.5 C 162.443,191.609 162.11,192.609 161.5,193.5C 160.566,194.568 160.232,195.901 160.5,197.5C 163.167,197.5 165.833,197.5 168.5,197.5C 165.375,198.479 162.042,198.813 158.5,198.5C 158.259,194.981 159.593,192.315 162.5,190.5 Z"/></g>
<g><path style="opacity:1" fill="#bdaec1" d="M 50.5,185.5 C 57.1595,185.009 63.4929,186.009 69.5,188.5C 69.8333,188.5 70.1667,188.5 70.5,188.5C 73.3197,190.745 76.3197,192.745 79.5,194.5C 82.8346,199.669 85.5012,205.169 87.5,211C 87.3613,212.301 86.6946,213.134 85.5,213.5C 81.2984,213.817 77.2984,213.483 73.5,212.5C 75.4832,212.843 76.8166,212.176 77.5,210.5C 79.1667,210.5 80.8333,210.5 82.5,210.5C 82.6602,208.801 82.4935,207.134 82,205.5C 75.975,194.093 66.475,188.76 53.5,189.5C 52.4324,188.566 51.099,188.232 49.5,188.5C 49.5,189.833 49.5,191.167 49.5,192.5C 48.5386,190.735 48.2053,188.735 48.5,186.5C 48.8417,185.662 49.5084,185.328 50.5,185.5 Z"/></g>
<g><path style="opacity:1" fill="#f8eff8" d="M 182.5,196.5 C 181.878,198.335 180.544,199.502 178.5,200C 178.833,200.333 179.167,200.667 179.5,201C 177.5,202 175.5,203 173.5,204C 167.49,203.334 161.49,203.501 155.5,204.5C 155.5,203.5 155.5,202.5 155.5,201.5C 165.187,203.386 174.187,201.719 182.5,196.5 Z"/></g>
<g><path style="opacity:1" fill="#fcf1fd" d="M 147.5,190.5 C 149.19,192.504 150.524,194.837 151.5,197.5C 150.576,200.722 150.243,204.055 150.5,207.5C 149.264,201.993 148.264,196.326 147.5,190.5 Z"/></g>
<g><path style="opacity:1" fill="#f9f0f9" d="M 255.5,199.5 C 258.1,200.919 260.6,202.585 263,204.5C 263.231,210.371 263.731,216.204 264.5,222C 263.892,224.553 263.225,227.053 262.5,229.5C 260.026,226.813 259.859,223.813 262,220.5C 263.983,212.069 261.816,205.069 255.5,199.5 Z"/></g>
<g><path style="opacity:1" fill="#bfadc2" d="M 146.5,150.5 C 146.345,163.185 146.678,175.851 147.5,188.5C 147.5,189.167 147.5,189.833 147.5,190.5C 148.264,196.326 149.264,201.993 150.5,207.5C 150.922,212.547 151.589,217.547 152.5,222.5C 155.001,236.259 160.501,248.592 169,259.5C 169.49,260.793 169.657,262.127 169.5,263.5C 168.041,263.567 166.708,263.234 165.5,262.5C 156.558,250.38 150.892,236.714 148.5,221.5C 146.167,221.5 143.833,221.5 141.5,221.5C 127.332,221.903 113.332,222.57 99.5,223.5C 98.5318,225.607 98.1984,227.941 98.5,230.5C 98.1667,231.167 97.8333,231.833 97.5,232.5C 95.7957,235.939 94.4624,239.605 93.5,243.5C 92.5592,245.05 91.8925,246.716 91.5,248.5C 88.6923,253.554 85.6923,258.554 82.5,263.5C 81.5,263.5 80.5,263.5 79.5,263.5C 79.2148,261.712 79.5481,260.045 80.5,258.5C 86.0282,250.275 90.0282,241.275 92.5,231.5C 97.4907,217.951 97.8241,204.285 93.5,190.5C 93.5,189.167 93.5,187.833 93.5,186.5C 93.2011,184.396 93.5344,182.396 94.5,180.5C 95.1818,181.243 95.8485,181.909 96.5,182.5C 98.2144,189.935 99.2144,197.602 99.5,205.5C 99.5,210.167 99.5,214.833 99.5,219.5C 103.042,219.813 106.375,219.479 109.5,218.5C 120.852,218.627 132.185,218.294 143.5,217.5C 144.5,217.5 145.5,217.5 146.5,217.5C 146.784,215.585 146.451,213.919 145.5,212.5C 145.5,212.167 145.5,211.833 145.5,211.5C 143.504,191.222 142.504,170.888 142.5,150.5C 143.833,150.5 145.167,150.5 146.5,150.5 Z"/></g>
<g><path style="opacity:1" fill="#f4e8f7" d="M 60.5,201.5 C 66.1095,203.816 71.4429,206.483 76.5,209.5C 71.2306,209.411 66.5639,207.744 62.5,204.5C 61.5748,203.643 60.9081,202.643 60.5,201.5 Z"/></g>
<g><path style="opacity:1" fill="#decedf" d="M 99.5,205.5 C 99.8333,205.5 100.167,205.5 100.5,205.5C 100.5,209.833 100.5,214.167 100.5,218.5C 103.5,218.5 106.5,218.5 109.5,218.5C 106.375,219.479 103.042,219.813 99.5,219.5C 99.5,214.833 99.5,210.167 99.5,205.5 Z"/></g>
<g><path style="opacity:1" fill="#c2afc6" d="M 49.5,192.5 C 50.8333,192.833 52.1667,193.167 53.5,193.5C 54.1001,194.9 55.1001,195.9 56.5,196.5C 57.0798,198.749 58.4131,200.415 60.5,201.5C 60.9081,202.643 61.5748,203.643 62.5,204.5C 66.5639,207.744 71.2306,209.411 76.5,209.5C 76.8333,209.5 77.1667,209.5 77.5,209.5C 77.5,209.833 77.5,210.167 77.5,210.5C 76.8166,212.176 75.4832,212.843 73.5,212.5C 72.1667,212.5 70.8333,212.5 69.5,212.5C 67.0987,211.951 64.7654,211.118 62.5,210C 58.3211,206.594 54.6545,202.761 51.5,198.5C 50.3702,196.685 49.7036,194.685 49.5,192.5 Z"/></g>
<g><path style="opacity:1" fill="#d2c6d7" d="M 69.5,212.5 C 70.8333,212.5 72.1667,212.5 73.5,212.5C 77.2984,213.483 81.2984,213.817 85.5,213.5C 83.5274,214.163 81.3608,214.496 79,214.5C 75.5226,214.672 72.356,214.006 69.5,212.5 Z"/></g>
<g><path style="opacity:1" fill="#fdf3fd" d="M 100.5,195.5 C 101.271,198.846 101.938,202.346 102.5,206C 100.853,209.653 101.187,212.986 103.5,216C 103.167,216.333 102.833,216.667 102.5,217C 109.393,216.491 116.227,216.658 123,217.5C 125.369,216.449 127.869,215.782 130.5,215.5C 134.745,215.396 139.078,215.73 143.5,216.5C 143.5,216.833 143.5,217.167 143.5,217.5C 132.185,218.294 120.852,218.627 109.5,218.5C 106.5,218.5 103.5,218.5 100.5,218.5C 100.5,214.167 100.5,209.833 100.5,205.5C 100.5,202.167 100.5,198.833 100.5,195.5 Z"/></g>
<g><path style="opacity:1" fill="#f7e1f8" d="M 145.5,212.5 C 146.451,213.919 146.784,215.585 146.5,217.5C 145.5,217.5 144.5,217.5 143.5,217.5C 143.5,217.167 143.5,216.833 143.5,216.5C 145.104,215.713 145.771,214.38 145.5,212.5 Z"/></g>
<g><path style="opacity:1" fill="#f7eef7" d="M 202.5,222.5 C 198.345,221.258 194.678,219.258 191.5,216.5C 196.447,215.712 200.114,217.712 202.5,222.5 Z"/></g>
<g><path style="opacity:1" fill="#faf3fb" d="M 181.5,215.5 C 171.819,215.376 163.986,219.043 158,226.5C 157.175,228.701 157.675,230.534 159.5,232C 162.592,233.546 165.592,235.046 168.5,236.5C 166.801,236.34 165.134,236.506 163.5,237C 159.189,241.906 159.689,245.406 165,247.5C 165.333,248.833 165.667,250.167 166,251.5C 169.47,254.123 171.97,257.456 173.5,261.5C 173.57,263.666 172.904,263.999 171.5,262.5C 169.235,265.067 167.235,265.067 165.5,262.5C 166.708,263.234 168.041,263.567 169.5,263.5C 169.657,262.127 169.49,260.793 169,259.5C 160.501,248.592 155.001,236.259 152.5,222.5C 153.935,224.598 155.102,226.931 156,229.5C 156.645,226.441 157.478,223.441 158.5,220.5C 160.005,223.131 160.671,222.797 160.5,219.5C 161.552,219.649 162.552,219.483 163.5,219C 165.011,217.156 166.845,215.656 169,214.5C 172.516,215.259 176.016,214.926 179.5,213.5C 180.713,213.747 181.38,214.414 181.5,215.5 Z"/></g>
<g><path style="opacity:1" fill="#c2b1c5" d="M 181.5,215.5 C 184.833,215.833 188.167,216.167 191.5,216.5C 194.678,219.258 198.345,221.258 202.5,222.5C 202.833,223.167 203.167,223.833 203.5,224.5C 203.762,225.978 203.429,227.311 202.5,228.5C 196.965,232.601 190.965,235.601 184.5,237.5C 179.105,237.733 173.772,237.4 168.5,236.5C 165.592,235.046 162.592,233.546 159.5,232C 157.675,230.534 157.175,228.701 158,226.5C 163.986,219.043 171.819,215.376 181.5,215.5 Z"/></g>
<g><path style="opacity:1" fill="#f9f0fa" d="M 93.5,190.5 C 97.8241,204.285 97.4907,217.951 92.5,231.5C 92.631,230.761 92.4643,230.094 92,229.5C 91.1887,230.96 90.3554,231.293 89.5,230.5C 92.7719,226.879 94.4386,222.545 94.5,217.5C 93.448,217.649 92.448,217.483 91.5,217C 94.1242,216.424 94.7908,215.09 93.5,213C 94.5728,211.687 95.2395,210.187 95.5,208.5C 93.6444,202.729 92.9777,196.729 93.5,190.5 Z"/></g>
<g><path style="opacity:1" fill="#fdfbfc" d="M 189.5,221.5 C 192.229,222.637 194.896,223.97 197.5,225.5C 194.59,229.587 190.59,231.587 185.5,231.5C 183.659,230.327 181.826,230.327 180,231.5C 178.715,231.05 177.548,230.383 176.5,229.5C 175.304,229.846 175.304,230.346 176.5,231C 174.527,231.495 172.527,231.662 170.5,231.5C 170.279,230.265 169.612,229.265 168.5,228.5C 168.833,227.167 169.167,225.833 169.5,224.5C 172.057,225.82 173.724,224.987 174.5,222C 179.489,221.501 184.489,221.334 189.5,221.5 Z"/></g>
<g><path style="opacity:1" fill="#e3d4e5" d="M 141.5,221.5 C 137.833,222.167 134.167,222.833 130.5,223.5C 129.167,223.5 127.833,223.5 126.5,223.5C 117.5,223.5 108.5,223.5 99.5,223.5C 113.332,222.57 127.332,221.903 141.5,221.5 Z"/></g>
<g><path style="opacity:1" fill="#f9eff9" d="M 256.5,208.5 C 257.117,208.611 257.617,208.944 258,209.5C 259.444,216.065 257.944,221.732 253.5,226.5C 253.343,225.127 253.51,223.793 254,222.5C 255.013,221.504 255.846,220.504 256.5,219.5C 256.241,215.759 256.241,212.093 256.5,208.5 Z"/></g>
<g><path style="opacity:1" fill="#fcf4fc" d="M 99.5,223.5 C 108.5,223.5 117.5,223.5 126.5,223.5C 126.082,224.222 125.416,224.722 124.5,225C 116.739,225.251 109.072,225.418 101.5,225.5C 101.741,228.034 100.741,229.7 98.5,230.5C 98.1984,227.941 98.5318,225.607 99.5,223.5 Z"/></g>
<g><path style="opacity:1" fill="#f8edf8" d="M 189.5,221.5 C 184.489,221.334 179.489,221.501 174.5,222C 173.724,224.987 172.057,225.82 169.5,224.5C 169.167,225.833 168.833,227.167 168.5,228.5C 169.612,229.265 170.279,230.265 170.5,231.5C 167.614,231.39 165.28,230.223 163.5,228C 168.012,222.103 174.012,219.603 181.5,220.5C 184.355,220.503 187.022,220.836 189.5,221.5 Z"/></g>
<g><path style="opacity:1" fill="#c0afc2" d="M 79.5,237.5 C 79.6602,239.199 79.4935,240.866 79,242.5C 76.4862,244.004 73.9862,245.338 71.5,246.5C 61.6061,248.588 52.2728,247.255 43.5,242.5C 43.1667,242.5 42.8333,242.5 42.5,242.5C 41.5994,240.273 39.9328,239.273 37.5,239.5C 36.2245,236.664 35.5578,233.664 35.5,230.5C 52.0654,222.091 66.7321,224.425 79.5,237.5 Z"/></g>
<g><path style="opacity:1" fill="#f8eef9" d="M 79.5,237.5 C 66.7321,224.425 52.0654,222.091 35.5,230.5C 38.201,227.959 41.201,225.626 44.5,223.5C 49.632,223.733 54.7987,223.733 60,223.5C 61.7215,223.611 61.8882,224.111 60.5,225C 61.8989,225.595 63.2322,225.428 64.5,224.5C 66.5751,226.064 68.9084,227.064 71.5,227.5C 72.2621,228.628 72.9288,229.795 73.5,231C 77.6179,231.143 79.6179,233.309 79.5,237.5 Z"/></g>
<g><path style="opacity:1" fill="#f7eef7" d="M 203.5,224.5 C 204.5,224.5 205.5,224.5 206.5,224.5C 206.034,226.201 206.034,227.701 206.5,229C 204.5,229.667 202.5,230.333 200.5,231C 199.12,232.324 198.786,233.657 199.5,235C 194.968,236.73 189.968,237.564 184.5,237.5C 190.965,235.601 196.965,232.601 202.5,228.5C 203.429,227.311 203.762,225.978 203.5,224.5 Z"/></g>
<g><path style="opacity:1" fill="#f9f0fa" d="M 185.5,231.5 C 180.483,234.087 175.483,234.087 170.5,231.5C 172.527,231.662 174.527,231.495 176.5,231C 175.304,230.346 175.304,229.846 176.5,229.5C 177.548,230.383 178.715,231.05 180,231.5C 181.826,230.327 183.659,230.327 185.5,231.5 Z"/></g>
<g><path style="opacity:1" fill="#f6eaf6" d="M 66.5,233.5 C 65.5,233.5 64.5,233.5 63.5,233.5C 62.0883,232.467 60.4216,231.801 58.5,231.5C 56.1368,232.681 53.8034,232.681 51.5,231.5C 49.9081,233.562 48.0748,233.895 46,232.5C 45.0975,233.701 43.9308,234.535 42.5,235C 43.3805,235.708 44.0472,236.542 44.5,237.5C 42.4559,236.969 40.7893,235.802 39.5,234C 41.6188,231.607 44.2855,230.274 47.5,230C 54.4366,228.723 60.7699,229.89 66.5,233.5 Z"/></g>
<g><path style="opacity:1" fill="#fcf7fc" d="M 63.5,233.5 C 61.1729,235.442 58.5063,236.276 55.5,236C 56.1667,235.667 56.8333,235.333 57.5,235C 53.4489,234.482 49.4489,234.816 45.5,236C 47.8991,236.711 50.2324,236.544 52.5,235.5C 57.0226,239.522 62.0226,240.355 67.5,238C 65.2177,236.916 64.8843,235.416 66.5,233.5C 76.3361,237.796 76.3361,240.963 66.5,243C 58.2226,244.329 50.8893,242.495 44.5,237.5C 44.0472,236.542 43.3805,235.708 42.5,235C 43.9308,234.535 45.0975,233.701 46,232.5C 48.0748,233.895 49.9081,233.562 51.5,231.5C 53.8034,232.681 56.1368,232.681 58.5,231.5C 60.4216,231.801 62.0883,232.467 63.5,233.5 Z"/></g>
<g><path style="opacity:1" fill="#f9effa" d="M 263.5,232.5 C 266.126,234.476 267.46,237.142 267.5,240.5C 267.064,244.037 266.898,247.703 267,251.5C 266.535,252.931 265.701,254.097 264.5,255C 264.579,259.557 265.246,264.223 266.5,269C 265.643,269.689 264.977,270.522 264.5,271.5C 266.013,273.535 266.679,275.869 266.5,278.5C 265.442,284.179 264.275,289.845 263,295.5C 262.23,296.598 261.397,296.598 260.5,295.5C 262.599,290.777 263.932,285.777 264.5,280.5C 263.153,274.409 262.486,268.243 262.5,262C 263.057,255.404 264.057,248.904 265.5,242.5C 265.599,238.976 264.933,235.643 263.5,232.5 Z"/></g>
<g><path style="opacity:1" fill="#f7fdf6" d="M 63.5,233.5 C 64.5,233.5 65.5,233.5 66.5,233.5C 64.8843,235.416 65.2177,236.916 67.5,238C 62.0226,240.355 57.0226,239.522 52.5,235.5C 50.2324,236.544 47.8991,236.711 45.5,236C 49.4489,234.816 53.4489,234.482 57.5,235C 56.8333,235.333 56.1667,235.667 55.5,236C 58.5063,236.276 61.1729,235.442 63.5,233.5 Z"/></g>
<g><path style="opacity:1" fill="#f5ecf6" d="M 97.5,232.5 C 98.6499,236.607 98.1499,240.607 96,244.5C 95.6582,242.381 94.8249,242.047 93.5,243.5C 94.4624,239.605 95.7957,235.939 97.5,232.5 Z"/></g>
<g><path style="opacity:1" fill="#f5ebf5" d="M 35.5,230.5 C 35.5578,233.664 36.2245,236.664 37.5,239.5C 39.9328,239.273 41.5994,240.273 42.5,242.5C 37.5403,242.368 34.8737,239.535 34.5,234C 34.5143,232.615 34.8476,231.449 35.5,230.5 Z"/></g>
<g><path style="opacity:1" fill="#f5ebf5" d="M 79.5,237.5 C 80.2737,240.141 80.607,242.808 80.5,245.5C 77.5719,246.484 74.5719,246.817 71.5,246.5C 73.9862,245.338 76.4862,244.004 79,242.5C 79.4935,240.866 79.6602,239.199 79.5,237.5 Z"/></g>
<g><path style="opacity:1" fill="#f9eef8" d="M 43.5,242.5 C 52.2728,247.255 61.6061,248.588 71.5,246.5C 65.3637,249.573 59.0303,249.906 52.5,247.5C 51.5539,247.987 50.5539,248.32 49.5,248.5C 46.765,247.593 44.4316,246.093 42.5,244C 43.056,243.617 43.3893,243.117 43.5,242.5 Z"/></g>
<g><path style="opacity:1" fill="#f8f0f9" d="M 141.5,221.5 C 143.833,221.5 146.167,221.5 148.5,221.5C 150.892,236.714 156.558,250.38 165.5,262.5C 163.589,262.426 162.422,261.426 162,259.5C 161.586,259.957 161.086,260.291 160.5,260.5C 159.081,258.664 157.914,256.664 157,254.5C 156.25,253.874 155.416,253.374 154.5,253C 154.833,252.667 155.167,252.333 155.5,252C 153.16,249.664 152.493,246.997 153.5,244C 150.06,237.947 147.893,231.447 147,224.5C 142.069,223.901 136.569,223.568 130.5,223.5C 134.167,222.833 137.833,222.167 141.5,221.5 Z"/></g>
<g><path style="opacity:1" fill="#f4ecf6" d="M 91.5,248.5 C 91.3433,249.873 91.51,251.207 92,252.5C 92.6543,251.304 93.1543,251.304 93.5,252.5C 92.3112,253.429 90.9778,253.762 89.5,253.5C 88.4909,256.049 87.6575,258.715 87,261.5C 85.8904,263.037 84.3904,263.703 82.5,263.5C 85.6923,258.554 88.6923,253.554 91.5,248.5 Z"/></g>
<g><path style="opacity:1" fill="#faf2fa" d="M 92.5,231.5 C 90.0282,241.275 86.0282,250.275 80.5,258.5C 79.5481,260.045 79.2148,261.712 79.5,263.5C 78.7611,263.631 78.0944,263.464 77.5,263C 77.799,261.68 77.9657,260.18 78,258.5C 81.8974,254.241 84.7308,249.408 86.5,244C 85.7581,240.73 86.7581,237.897 89.5,235.5C 88.3707,233.471 88.8707,233.137 91,234.5C 91.2321,233.263 91.7321,232.263 92.5,231.5 Z"/></g>
<g><path style="opacity:1" fill="#f7edf8" d="M 254.5,230.5 C 256.39,230.297 257.89,230.963 259,232.5C 262.328,239.537 262.328,246.537 259,253.5C 258.229,262.567 258.729,271.567 260.5,280.5C 260.639,282.883 259.972,284.883 258.5,286.5C 258.176,285.188 257.509,284.355 256.5,284C 257.959,275.096 257.626,266.262 255.5,257.5C 256.953,255.279 258.119,252.946 259,250.5C 258.923,246.771 259.09,243.104 259.5,239.5C 257.734,236.355 256.067,233.355 254.5,230.5 Z"/></g>
<g><path style="opacity:1" fill="#f7e7f6" d="M 249.5,299.5 C 247.45,301.547 245.117,303.214 242.5,304.5C 241.829,303.153 241.829,301.986 242.5,301C 244.866,300.56 247.199,300.06 249.5,299.5 Z"/></g>
<g><path style="opacity:1" fill="#fdf3fc" d="M 238.5,305.5 C 235.78,307.527 232.78,309.193 229.5,310.5C 230.038,308.883 230.371,307.216 230.5,305.5C 233.229,304.47 235.896,304.47 238.5,305.5 Z"/></g>
<g><path style="opacity:1" fill="#f6ecf7" d="M 258.5,297.5 C 256.395,300.153 254.395,302.986 252.5,306C 251.122,307.334 249.789,307.501 248.5,306.5C 251.211,302.788 254.544,299.788 258.5,297.5 Z"/></g>
<g><path style="opacity:1" fill="#f5ecf6" d="M 247.5,306.5 C 247.489,308.017 246.823,309.184 245.5,310C 243.069,310.295 241.236,311.462 240,313.5C 239.329,312.748 238.496,312.414 237.5,312.5C 240.549,310.137 243.882,308.137 247.5,306.5 Z"/></g>
<g><path style="opacity:1" fill="#f2eaf1" d="M 237.5,312.5 C 237.082,313.222 236.416,313.722 235.5,314C 235.833,314.333 236.167,314.667 236.5,315C 233.178,315.059 230.344,316.226 228,318.5C 225.973,318.014 223.807,318.014 221.5,318.5C 226.537,315.929 231.871,313.929 237.5,312.5 Z"/></g>
<g><path style="opacity:1" fill="#faf2fa" d="M 226.5,311.5 C 221.648,313.463 216.648,315.297 211.5,317C 210.627,318.045 209.627,318.878 208.5,319.5C 208.5,318.167 208.5,316.833 208.5,315.5C 211.568,315.453 214.568,314.953 217.5,314C 215.956,313.71 214.623,313.044 213.5,312C 215.713,311.374 217.88,311.541 220,312.5C 221.762,312.056 221.595,311.556 219.5,311C 221.885,310.444 224.218,310.61 226.5,311.5 Z"/></g>
<g><path style="opacity:1" fill="#faf1fa" d="M 208.5,319.5 C 204.164,322.509 200.164,325.843 196.5,329.5C 194.2,331.637 192.033,333.97 190,336.5C 186.917,340.995 184.084,345.662 181.5,350.5C 182.092,345.567 184.092,341.4 187.5,338C 187.043,337.586 186.709,337.086 186.5,336.5C 187.531,335.3 188.365,333.966 189,332.5C 190.117,332.335 191.284,332.002 192.5,331.5C 193.297,327.702 195.297,324.702 198.5,322.5C 199.812,323.46 201.146,323.294 202.5,322C 203.833,321.333 203.833,320.667 202.5,320C 204.23,318.148 205.396,318.314 206,320.5C 206.671,319.748 207.504,319.414 208.5,319.5 Z"/></g>
<g><path style="opacity:1" fill="#f8edf8" d="M 220.5,318.5 C 219.952,319.688 219.619,320.855 219.5,322C 217.069,322.295 215.236,323.462 214,325.5C 213.667,325.167 213.333,324.833 213,324.5C 212.751,325.624 212.251,326.624 211.5,327.5C 210.109,326.355 208.776,326.355 207.5,327.5C 205.009,328.541 205.009,329.374 207.5,330C 202.872,332.849 198.206,336.349 193.5,340.5C 195.122,337.545 197.122,334.878 199.5,332.5C 205.324,326.087 212.324,321.42 220.5,318.5 Z"/></g>
<g><path style="opacity:1" fill="#eadbec" d="M 193.5,340.5 C 192.66,342.853 191.326,344.853 189.5,346.5C 189.845,343.802 191.178,341.802 193.5,340.5 Z"/></g>
<g><path style="opacity:1" fill="#c1acc4" d="M 196.5,329.5 C 198.5,329.5 199.5,330.5 199.5,332.5C 197.122,334.878 195.122,337.545 193.5,340.5C 191.178,341.802 189.845,343.802 189.5,346.5C 188.833,347.5 188.167,348.5 187.5,349.5C 184.756,352.646 182.756,356.313 181.5,360.5C 181.011,361.995 180.345,363.329 179.5,364.5C 178.5,364.5 177.5,364.5 176.5,364.5C 176.5,363.833 176.5,363.167 176.5,362.5C 177.403,358.107 179.07,354.107 181.5,350.5C 184.084,345.662 186.917,340.995 190,336.5C 192.033,333.97 194.2,331.637 196.5,329.5 Z"/></g>
<g><path style="opacity:1" fill="#ecdcee" d="M 187.5,349.5 C 186.743,353.111 185.41,356.445 183.5,359.5C 182.833,359.833 182.167,360.167 181.5,360.5C 182.756,356.313 184.756,352.646 187.5,349.5 Z"/></g>
<g><path style="opacity:1" fill="#e8d7eb" d="M 176.5,362.5 C 176.5,363.167 176.5,363.833 176.5,364.5C 175.5,365.833 174.5,367.167 173.5,368.5C 173.433,367.041 173.766,365.708 174.5,364.5C 174.5,363.167 175.167,362.5 176.5,362.5 Z"/></g>
<g><path style="opacity:1" fill="#fbf1fb" d="M 174.5,364.5 C 173.766,365.708 173.433,367.041 173.5,368.5C 171.672,375.309 169.672,381.975 167.5,388.5C 167.579,387.07 167.246,385.736 166.5,384.5C 168.134,380.298 169.301,375.965 170,371.5C 170.333,371.833 170.667,372.167 171,372.5C 172.036,369.247 172.703,365.914 173,362.5C 173.278,363.416 173.778,364.082 174.5,364.5 Z"/></g>
<g><path style="opacity:1" fill="#f2e9f4" d="M 183.5,359.5 C 182.133,365.374 180.633,370.707 179,375.5C 178.667,375.167 178.333,374.833 178,374.5C 177.059,376.727 175.892,378.727 174.5,380.5C 176.159,375.177 177.826,369.844 179.5,364.5C 180.345,363.329 181.011,361.995 181.5,360.5C 182.167,360.167 182.833,359.833 183.5,359.5 Z"/></g>
<g><path style="opacity:1" fill="#f6ecf7" d="M 174.5,380.5 C 173.955,392.649 172.288,404.649 169.5,416.5C 169.167,416.5 168.833,416.5 168.5,416.5C 169.366,404.191 171.366,392.191 174.5,380.5 Z"/></g>
<g><path style="opacity:1" fill="#faf0fa" d="M 167.5,391.5 C 165.956,399.765 164.956,408.099 164.5,416.5C 163.833,416.5 163.167,416.5 162.5,416.5C 162.586,415.504 162.252,414.671 161.5,414C 162.574,413.261 163.241,412.261 163.5,411C 162.313,407.078 162.646,403.245 164.5,399.5C 163.751,397.759 163.417,396.092 163.5,394.5C 164.077,392.45 165.41,391.45 167.5,391.5 Z"/></g>
<g><path style="opacity:1" fill="#beadc1" d="M 176.5,364.5 C 177.5,364.5 178.5,364.5 179.5,364.5C 177.826,369.844 176.159,375.177 174.5,380.5C 171.366,392.191 169.366,404.191 168.5,416.5C 167.167,416.5 165.833,416.5 164.5,416.5C 164.956,408.099 165.956,399.765 167.5,391.5C 167.5,390.5 167.5,389.5 167.5,388.5C 169.672,381.975 171.672,375.309 173.5,368.5C 174.5,367.167 175.5,365.833 176.5,364.5 Z"/></g>
<g><path style="opacity:1" fill="#c3bec4" d="M 66.5,416.5 C 64.8333,416.5 63.1667,416.5 61.5,416.5C 63.2956,413.952 64.9622,413.952 66.5,416.5 Z"/></g>
</svg>
